<svg height="32" viewBox="0 0 94 32" width="94" xmlns="http://www.w3.org/2000/svg" xmlns:xlink="http://www.w3.org/1999/xlink"><mask id="a" fill="#fff"><path d="m0 0h28.3969375v22.8763687h-28.3969375z" fill="#fff" fill-rule="evenodd"/></mask><g fill="none" fill-rule="evenodd"><path d="m0 32h96v-32h-96z"/><g fill="#000"><path d="m3.32509375 22.0267437c-.84384375-1.8065-1.3151875-3.8219062-1.3151875-5.9474062 0-7.77034375 6.29909375-14.06940625 14.06943745-14.06940625 4.3266563 0 8.1970001 1.953125 10.7779063 5.02565625l1.5396875-1.2919375c-2.9495625-3.5115-7.3728437-5.74365625-12.3175938-5.74365625-8.88037495 0-16.0793437 7.19896875-16.0793437 16.07934375 0 2.429125.53865625 4.7324687 1.5030625 6.7970312z" mask="url(#a)"/><path d="m16.0793406 25.6264469c-5.2727187 0-9.54709372-4.274375-9.54709372-9.5470938 0-5.2727187 4.27437502-9.54712498 9.54709372-9.54712498 2.9359375 0 5.561875 1.32568751 7.3131875 3.410625l1.5400938-1.29228125c-2.12-2.52387499-5.29925-4.12825-8.8532813-4.12825-6.38278123 0-11.55703122 5.17425001-11.55703122 11.55703123 0 6.38275 5.17424999 11.557 11.55703122 11.557z"/><path d="m19.5434844 18.9861062c-.8295625.9875938-2.0734375 1.6155313-3.4641563 1.6155313-2.4975937 0-4.5223125-2.0246875-4.5223125-4.5223125 0-2.4975938 2.0247188-4.5223125 4.5223125-4.5223125 1.3907188 0 2.6345938.6279687 3.4641563 1.6155625l1.7320625-1.453375c-1.2443438-1.4814063-3.110125-2.42334375-5.1962188-2.42334375-3.7464062 0-6.78346873 3.03706245-6.78346873 6.78346875 0 3.7464062 3.03706253 6.7835 6.78346873 6.7835 1.9117813 0 3.6381875-.7915 4.8711563-2.0639375z"/><path d="m31.7710031 13.8780969h2.0665v1.3957812h.0362813c.1931875-.4350625.5285-.8185937 1.0060312-1.151125.47725-.3321875 1.0423438-.4985 1.6949375-.4985.5679063 0 1.0541875.0997188 1.4592188.2991875.4048437.1993125.7370312.4622188.997.7884688.2597812.3263437.4501562.7010625.5710312 1.1239062.1206563.4231563.1813125.8582188.1813125 1.3052188v5.43825h-2.1753125v-4.8219063c0-.2538125-.018125-.5195312-.054375-.7976562-.0362812-.2777813-.1149375-.5285-.2355937-.7522188-.121-.2235-.2873125-.4079375-.498625-.552875-.2115313-.1450625-.4925625-.2175937-.842875-.2175937-.350625 0-.6525938.0697187-.9063125.2085312-.2538438.139-.4623438.3171563-.6254375.53475-.1631563.2174688-.2871875.4685-.3716875.7522188-.0845938.2841562-.1268125.5710312-.1268125.861125v4.785625h-2.1752813z"/><path d="m40.7075625 15.6183531v-1.74025h1.5226875v-2.5197812h2.1390313v2.5197812h2.1752812v1.74025h-2.1752812v4.042375c0 .3869063.0694062.707.2085.9608125.1387812.25375.4500312.3806563.9335312.3806563.1450625 0 .3019688-.015.4713125-.0453125.169125-.0300313.3200938-.0753438.4532813-.136l.0724062 1.704c-.1934063.0725312-.4231562.1297187-.6887812.17225-.2660001.0421875-.51975.0634375-.761375.0634375-.5800938 0-1.0514063-.0815625-1.4139063-.24475-.362625-.1631875-.6498125-.3865938-.861125-.67075-.2115312-.2837188-.3565625-.6100938-.4350312-.9788438-.0787813-.3684687-.1178438-.7642187-.1178438-1.187375v-4.0605z"/><path d="m47.8500469 13.8780969h2.084625v1.4501562h.0362812c.2415313-.5075625.5800938-.9182187 1.015125-1.2326875.4350313-.3140625.9425938-.4713125 1.5226875-.4713125.084375 0 .1750313.003125.2719688.0090625.0965625.0062813.1811875.0212813.2537187.0453438v1.9940937c-.1450625-.0362812-.2690625-.0603437-.3715937-.0725312-.1028438-.0119688-.2025625-.018125-.2991563-.018125-.4955937 0-.8944687.0906562-1.1963125.2718437-.3023125.1813125-.5379062.3987813-.707.652625-.1694375.2538438-.2840625.5138125-.3444062.7795313-.0606563.2659062-.0906563.4774375-.0906563.634375v4.6588125h-2.1752812z"/><path d="m54.0311875 22.5792812h2.1752812v-8.7011875h-2.1752812zm-.3082188-11.656c0-.3503124.1297188-.6554374.3896875-.9154062.2597813-.25978125.5891563-.38971875.9880625-.38971875.39875 0 .7340938.124 1.0060313.37159375.271875.2477812.4078438.559125.4078438.9335312 0 .3746875-.1359688.6860626-.4078438.9335313-.2719375.2479062-.6072813.3716875-1.0060313.3716875-.3989062 0-.7282812-.1297188-.9880625-.3898125-.2599687-.2596875-.3896875-.5647813-.3896875-.9154063z"/><path d="m59.0165469 15.6183531h-1.6495938v-1.74025h1.6495938v-.6507187c0-.5194375.0571875-1.0179375.17225-1.4955.1147187-.47725.308125-.897375.5800937-1.2599063.2718438-.3625.6313438-.64946872 1.0785625-.86099997.4469063-.21131251 1.008875-.31728125 1.685875-.31728125.2415313 0 .4440938.00906249.6072813.0271875.1630625.018125.3290625.05159375.4985.09971875l-.1450625 1.84903127c-.1209688-.03625-.2509063-.06625-.3896875-.0906563-.139125-.0240625-.2873125-.03625-.4442188-.03625-.314375 0-.568125.0606563-.7612812.1813125-.1935313.120875-.3415938.278125-.444125.4713125-.1028438.193375-.17225.4050313-.2085.6344688-.03625.2296562-.0544063.4531562-.0544063.670625v.7776562h2.012125v1.74025h-2.012125v6.9609375h-2.1752812z"/><path d="m72.3043125 22.579275h-2.0665v-1.3957812h-.0362813c-.1934062.4350625-.5288125.8188125-1.0060312 1.151-.4775625.3323125-1.0423438.498625-1.6949375.498625-.5682187 0-1.0545313-.0997188-1.45925-.2991875-.4050313-.1994375-.7373125-.4622188-.9970938-.7884688-.2599687-.326375-.4503437-.70075-.5709999-1.1239062-.1208751-.4229688-.1812188-.858-.1812188-1.3052188v-5.43825h2.1753125v4.8219063c0 .2538124.018125.5197499.054375.7976562.03625.278125.1147187.5288125.2355937.7522188.1206563.2238437.2869688.4078437.4985.552875.2113125.1450624.4923438.2175937.8430001.2175937.3381249 0 .6372812-.0694062.8972499-.2085312.2597813-.1387813.4713125-.3171563.6345-.53475.1631563-.2174688.2869688-.4681563.3715625-.7522188.0845-.2838437.1269375-.5710313.1269375-.861125v-4.785625h2.1752813z"/><path d="m24.51215 15.8448844c.4531875-.3925 1.0060625-.5891563 1.6586563-.5891563.3504375 0 .6554062.0575313.9155312.17225.2596563.1150313.4740938.2690625.6434063.4622188.169125.1935.2929062.4169062.3717187.67075.0784375.25375.1178438.51975.1178438.7975625h-4.459375c.048125-.61625.2990625-1.1207813.7522187-1.513625zm4.0334063 4.0878125c-.241875.350625-.5500938.6254062-.9244688.8247187-.3748125.1994688-.8339375.2991563-1.37775.2991563-.314375 0-.6163437-.054375-.9063437-.1631563-.2900938-.1087812-.5500625-.2566562-.7795313-.444125-.2296562-.1872187-.4140937-.41075-.552875-.6707187-.139-.2597813-.2205937-.546625-.2446562-.861h6.6165312c.011875-.0965938.018125-.1931875.018125-.2900938v-.29c0-.7854687-.1059687-1.4712187-.3172812-2.0575625-.2115313-.586-.50475-1.0754375-.8791563-1.4682812-.3747187-.3925313-.8189062-.688875-1.3324062-.8882188-.5138125-.1994375-1.0726563-.2991562-1.6767813-.2991562-.652625 0-1.2599062.1119375-1.82175.3354375-.5619687.2237187-1.0485937.537875-1.4593437.9425937-.4109688.4050313-.7341875.8944688-.9697813 1.4682813-.2357187.5741562-.3534687 1.2117812-.3534687 1.9125 0 .7131562.11775 1.3504375.3534687 1.9124062.2355938.5619375.5619375 1.036375.9788438 1.4230625.4169062.3869063.90925.6859688 1.4773437.8972813.5680313.2113125 1.1903125.3172812 1.8671875.3172812 1.4608438 0 2.6112188-.4654687 3.4520313-1.395625z"/><path d="m87.20845 15.8448844c.4531562-.3925 1.0060625-.5891563 1.6586562-.5891563.3504375 0 .6554375.0575313.9155625.17225.2596563.1150313.4740625.2690625.6434063.4622188.169125.1935.2929062.4169062.3716875.67075.0784375.25375.1178437.51975.1178437.7975625h-4.459375c.048125-.61625.2990625-1.1207813.7522188-1.513625zm4.0334062 4.0878125c-.2418437.350625-.5500625.6254062-.9244375.8247187-.3748437.1994688-.8339375.2991563-1.3777812.2991563-.314375 0-.6163125-.054375-.9063438-.1631563-.2900625-.1087812-.5500625-.2566562-.7795-.444125-.2296562-.1872187-.4140937-.41075-.5529062-.6707187-.139-.2597813-.2205938-.546625-.2446563-.861h6.6165625c.0118438-.0965938.018125-.1931875.018125-.2900938v-.29c0-.7854687-.1059687-1.4712187-.3173125-2.0575625-.2115-.586-.50475-1.0754375-.879125-1.4682812-.3747187-.3925313-.8189375-.688875-1.3324375-.8882188-.5137812-.1994375-1.072625-.2991562-1.6767812-.2991562-.652625 0-1.259875.1119375-1.8217188.3354375-.562.2237187-1.0485937.537875-1.4593437.9425937-.411.4050313-.7342188.8944688-.9698125 1.4682813-.2357188.5741562-.3534375 1.2117812-.3534375 1.9125 0 .7131562.1177187 1.3504375.3534375 1.9124062.2355937.5619375.5619687 1.036375.9788437 1.4230625.4169063.3869063.9092813.6859688 1.477375.8972813.568.2113125 1.1902813.3172812 1.8671875.3172812 1.4608438 0 2.6112188-.4654687 3.4520313-1.395625z"/><path d="m80.6958938 19.2042063c-.1209688.3313125-.29325.623375-.516625.8763437-.2238438.2528438-.4956875.4545625-.8157813.6052188-.3203125.15075-.6798125.2257812-1.078625.2257812-.386875 0-.7341875-.078125-1.0422812-.2348437-.3082501-.1565938-.5682188-.3644688-.7795313-.623375-.2115312-.2589063-.3747188-.5511563-.4894375-.8763438-.1149375-.3251562-.172125-.6621875-.172125-1.0117812 0-.3851563.0571875-.7465938.172125-1.0839375.1147187-.337375.2779063-.6294063.4894375-.8763438.2113125-.2470313.4712812-.4427187.7795313-.5872188.3080937-.1444062.6616562-.2169062 1.0604375-.2169062.39875 0 .755125.0725 1.0695.2169062.3141875.1445001.5829062.3433125.80675.5962813.223375.2529688.3956562.5480313.516625.8850625.1206562.337375.1811875.692875.1811875 1.0661563 0 .3614375-.0605313.7079062-.1811875 1.039zm.1811875-5.3260938v1.3050937h-.03625c-.3144063-.5316249-.73725-.9244687-1.2688438-1.1781875-.5319687-.2538437-1.1057813-.3807499-1.722125-.3807499-.652625 0-1.2417813.1209687-1.7674688.362625-.5256875.2418437-.9729062.5680937-1.3415.9788437-.36875.4109687-.6524687.8944687-.8519375 1.4501563-.1994375.5560312-.2990312 1.1483124-.2990312 1.7765312 0 .6163437.1025312 1.1995625.308125 1.7493125.205375.5500938.49225 1.0304687.861 1.4410937.3685312.4110001.8185937.7373438 1.3505312.9788751.531625.241625 1.1239063.3626249 1.7765313.3626249.6041563 0 1.151125-.113 1.6405313-.3387812.4894375-.2257813.8910312-.5523438 1.2055312-.9797188h.0362188v.63675c0 .4367501-.0453125.8369376-.1359688 1.2008438-.0906562.3637187-.2419375.6792812-.4531562.9460625-.211625.2667812-.4956875.4758438-.8520625.6276875-.3565625.1515-.7947188.2275-1.3141563.2275-.5438438 0-1.0817188-.106-1.6134375-.3173125-.5179063-.2059687-.9839063-.5009063-1.3984375-.8844062l-1.2844687 1.654875c.2779374.2294375.5920937.4350312.9427187.6163437.3503125.1812188.7159688.3321875 1.0967187.4531563.3806563.1206874.7672188.2113437 1.1601875.271875.3925.0603437.7640938.0906562 1.11475.0906562.8457813 0 1.5771563-.1209687 2.1935001-.3625312.61625-.2419375 1.1267187-.5831875 1.5317812-1.0241876.4046875-.4412812.703875-.9789687.89725-1.6133125.1931875-.6344999.2900938-1.344625.2900938-2.1300937v-7.921625z"/></g></g></svg>