<svg xmlns="http://www.w3.org/2000/svg" width="441" height="441" fill="none"><clipPath id="a"><path d="M0 0h441v441H0z"/></clipPath><g clip-path="url(#a)"><path d="M0 0h441v441H0z"/><path fill="#100f0d" d="M66.495 357.261c-13.391 0-24.21 10.442-24.21 23.379 0 13.014 10.819 23.531 24.21 23.531 6.28 0 12.182-2.42 16.646-6.431l1.968 2.193c-4.918 4.54-11.652 7.34-18.688 7.34-15.057 0-27.315-11.879-27.315-26.557s12.258-26.482 27.315-26.482c7.111 0 13.694 2.725 18.611 7.113l-1.89 2.421c-4.389-4.085-10.366-6.507-16.647-6.507zm65.215 25.876v24.06h-3.178v-23.455c0-8.095-4.766-12.863-12.861-12.863-9.761.227-15.435 6.734-15.435 17.025v19.293h-3.178v-56.141h3.178v27.011c2.648-6.659 8.246-10.213 16.191-10.365 9.609 0 15.283 5.826 15.283 15.435m39.719 11.198v-6.431h-13.771c-7.718 0-11.954 2.649-11.954 7.717 0 5.221 4.01 8.777 10.441 8.777 7.339 0 12.862-3.177 15.284-10.063zm.075 12.862-.075-7.792c-3.33 5.447-8.928 7.868-15.737 7.868-7.795 0-13.015-4.918-13.015-11.576 0-6.583 5.6-10.593 14.679-10.593h13.997v-3.859c-.076-6.658-3.934-10.668-11.803-10.668-4.919 0-9.08 1.968-13.241 5.146l-1.513-2.422c4.691-3.405 9.231-5.598 15.208-5.598 9.306 0 14.376 5.145 14.451 13.316l.152 26.178zm20.65-39.419v39.419h-3.101v-39.419zm1.135-11.349c0 1.589-1.21 2.798-2.648 2.798-1.437 0-2.648-1.209-2.648-2.798 0-1.514 1.211-2.725 2.648-2.725 1.438 0 2.648 1.211 2.648 2.725zm49.256 26.708v24.06h-3.178v-23.455c0-8.095-4.767-12.863-12.862-12.863-9.08.227-14.679 5.902-15.359 14.982v21.336h-3.178v-39.419h3.178v10.063c2.647-6.507 8.246-9.987 16.115-10.139 9.61 0 15.284 5.826 15.284 15.435m29.579-25.649c-8.398 0-13.847 3.481-13.847 9.003 0 16.116 31.097 7.794 30.946 27.314 0 8.172-7.339 13.468-18.386 13.468-7.037 0-14.224-3.102-18.839-7.642l1.665-2.799c4.312 4.463 11.046 7.187 17.249 7.187 9.081 0 14.906-3.933 14.906-10.137.151-16.571-30.945-8.097-30.945-27.164 0-7.641 6.961-12.559 17.402-12.559 5.372 0 11.198 1.739 15.132 4.312l-1.438 2.876c-3.934-2.573-9.305-3.859-13.845-3.859m55.457 36.847v-6.431H313.81c-7.718 0-11.954 2.649-11.954 7.717 0 5.221 4.01 8.777 10.441 8.777 7.338 0 12.862-3.177 15.284-10.063zm.075 12.862-.075-7.792c-3.33 5.447-8.929 7.868-15.738 7.868-7.794 0-13.014-4.918-13.014-11.576 0-6.583 5.598-10.593 14.678-10.593h13.998v-3.859c-.077-6.658-3.934-10.668-11.803-10.668-4.919 0-9.081 1.968-13.242 5.146l-1.513-2.422c4.691-3.405 9.231-5.598 15.209-5.598 9.305 0 14.375 5.145 14.45 13.316l.151 26.178zm21.482-43.809v5.373h12.181v2.725h-12.181v35.711h-3.102v-35.711h-4.994v-2.725h4.994v-5.144c0-7.642 5.372-12.712 11.652-12.636 2.875 0 5.825 1.059 8.019 2.8l-1.437 2.573c-1.892-1.439-4.237-2.346-6.507-2.346-4.842-.077-8.625 3.782-8.625 9.38m48.877 22.171c-.606-8.929-6.432-14.982-15.436-14.982-8.852 0-15.283 6.053-16.04 14.982zm2.874 2.798h-34.425c.454 9.609 7.111 16.041 16.266 16.041 5.373 0 10.14-1.967 13.318-5.448l1.816 2.044c-3.633 3.934-9.005 6.279-15.285 6.279-11.122 0-19.218-8.172-19.218-19.747 0-11.577 8.096-19.823 19.218-19.823 11.577 0 18.537 8.473 18.31 20.654"/><path fill="#f2f031" d="M105.979 102.664v88.314l25.492-14.718v-58.581L183.746 89.7V61.033z"/><path stroke="#211d1d" stroke-linecap="round" stroke-linejoin="round" stroke-miterlimit="10" stroke-width="6.806" d="M105.979 102.664v88.314l25.492-14.718v-58.581L183.746 89.7V61.033z"/><path fill="#f2f031" d="M334.003 147.446v28.763l-74.395-42.829-.128-28.625z"/><path stroke="#211d1d" stroke-linecap="round" stroke-linejoin="round" stroke-miterlimit="10" stroke-width="6.806" d="M334.003 147.446v28.763l-74.395-42.829-.128-28.625z"/><path fill="#f2f031" d="M334.004 176.209v-28.763l25.427-13.525v28.577z"/><path stroke="#211d1d" stroke-linecap="round" stroke-linejoin="round" stroke-miterlimit="10" stroke-width="6.806" d="M334.004 176.209v-28.763l25.427-13.525v28.577z"/><path fill="#f2f031" d="m260.362 105.322-56.417 30.405.007 28.625 56.533-30.155z"/><path stroke="#211d1d" stroke-linecap="round" stroke-linejoin="round" stroke-miterlimit="10" stroke-width="6.806" d="m260.362 105.322-56.417 30.405.007 28.625 56.533-30.155z"/><path fill="#f2f031" d="m203.945 135.727 56.416-30.405 73.643 42.124 25.427-13.526L183.638 32.726 80.486 87.946l25.497 14.718 77.762-41.631 49.919 28.736-56.647 30.436 26.928 15.522-26.928-15.522V180.2l102.099 58.322 28.748-15.246-103.912-58.924z"/><path stroke="#211d1d" stroke-linecap="round" stroke-linejoin="round" stroke-miterlimit="10" stroke-width="6.806" d="m203.945 135.727 56.416-30.405 73.643 42.124 25.427-13.526L183.638 32.726 80.486 87.946l25.497 14.718 77.762-41.631 49.919 28.736-56.647 30.436 26.928 15.522-26.928-15.522V180.2l102.099 58.322 28.748-15.246-103.912-58.924z"/><path fill="#f2f031" d="M257.833 306.663 80.486 205.43V87.947l25.398 14.717v87.353l151.949 87.434z"/><path stroke="#211d1d" stroke-linecap="round" stroke-linejoin="round" stroke-miterlimit="10" stroke-width="6.806" d="M257.833 306.663 80.486 205.43V87.947l25.398 14.717v87.353l151.949 87.434z"/><path fill="#f2f031" d="m359.431 223.156-101.598 54.295v29.212l101.598-54.385v-29.122L231.29 149.748l-27.338 14.604 103.912 58.924-49.245 26.118-75.01-43.255-52.134-29.883-25.591 13.761 151.949 87.434"/><path stroke="#211d1d" stroke-linecap="round" stroke-linejoin="round" stroke-miterlimit="10" stroke-width="6.806" d="m359.431 223.156-101.598 54.295v29.212l101.598-54.385zm0 0L231.29 149.748l-27.338 14.604 103.912 58.924-49.245 26.118-75.01-43.255-52.134-29.883-25.591 13.761 151.949 87.434"/><path fill="#f2f031" d="m183.746 89.7 24.104 13.94 25.814-13.87-49.918-28.737z"/><path stroke="#211d1d" stroke-linecap="round" stroke-linejoin="round" stroke-miterlimit="10" stroke-width="6.806" d="m183.746 89.7 24.104 13.94 25.814-13.87-49.918-28.737z"/></g></svg>