<svg width="121" height="34" viewBox="0 0 121 34" fill="none" xmlns="http://www.w3.org/2000/svg">
<path d="M45.4094 19.1999L47.0815 20.1121C46.6747 20.6835 46.1426 21.1532 45.5263 21.485C44.9039 21.828 44.2045 22.0052 43.4947 21.9998C42.6942 22.0073 41.9082 21.7848 41.2294 21.3585C40.553 20.9319 39.9936 20.3419 39.6023 19.6425C39.2008 18.9199 39 18.1221 39 17.249C39 16.5866 39.1169 15.9694 39.3506 15.3974C39.5843 14.8194 39.9049 14.3136 40.3125 13.88C40.7197 13.4449 41.2085 13.095 41.7508 12.8504C42.299 12.6029 42.8937 12.4766 43.4947 12.4801C44.2258 12.4801 44.903 12.6517 45.5263 12.9949C46.1443 13.3281 46.6768 13.8012 47.0815 14.3768L45.4094 15.289C45.17 14.9975 44.8691 14.763 44.5285 14.6026C44.2069 14.4433 43.8533 14.3599 43.4947 14.3587C43.0033 14.3587 42.5568 14.4942 42.1553 14.7652C41.7597 15.0301 41.4451 15.3824 41.2114 15.8219C40.9821 16.262 40.8647 16.7522 40.8698 17.249C40.8698 17.7608 40.9867 18.2365 41.2204 18.676C41.4541 19.1096 41.7687 19.4588 42.1643 19.7237C42.5584 19.9865 43.0217 20.1249 43.4947 20.1212C43.8663 20.1212 44.2198 20.0369 44.5554 19.8683C44.8911 19.6997 45.1757 19.4769 45.4094 19.1999ZM53.0976 21.9998C52.2971 22.0073 51.5112 21.7848 50.8323 21.3585C50.1559 20.9319 49.5966 20.3419 49.2052 19.6425C48.8037 18.9199 48.6029 18.1221 48.6029 17.249C48.6029 16.5866 48.7198 15.9694 48.9535 15.3974C49.1872 14.8194 49.5079 14.3136 49.9154 13.88C50.3226 13.4449 50.8114 13.095 51.3537 12.8504C51.9019 12.6029 52.4966 12.4766 53.0976 12.4801C53.9247 12.4801 54.6768 12.6938 55.354 13.1213C56.0348 13.5464 56.5952 14.1405 56.981 14.8465C57.3886 15.569 57.5923 16.3699 57.5923 17.249C57.5923 17.9053 57.4755 18.5195 57.2417 19.0915C57.0145 19.6534 56.6853 20.1679 56.2709 20.6089C55.8661 21.0405 55.3803 21.3873 54.8416 21.6295C54.2937 21.8782 53.6988 22.0045 53.0976 21.9998ZM53.0976 20.1212C53.5738 20.1275 54.0407 19.989 54.437 19.7237C54.8319 19.4596 55.1536 19.0991 55.3719 18.676C55.6055 18.2372 55.726 17.7466 55.7225 17.249C55.7273 16.7443 55.6035 16.2468 55.363 15.8038C55.1427 15.3792 54.8177 15.0185 54.4191 14.7561C54.0286 14.4927 53.5679 14.3541 53.0976 14.3587C52.6062 14.3587 52.1597 14.4912 51.7582 14.7561C51.3627 15.0211 51.048 15.3733 50.8143 15.8129C50.5856 16.2564 50.4683 16.7494 50.4727 17.249C50.4727 17.7849 50.5926 18.2696 50.8323 18.7031C51.072 19.1367 51.3896 19.4829 51.7852 19.7418C52.1867 19.9947 52.6242 20.1212 53.0976 20.1212ZM59.5887 12.733H61.4585V21.765H59.5887V12.733V12.733ZM60.5326 11.2427C60.4016 11.246 60.2713 11.2229 60.1493 11.1749C60.0274 11.1268 59.9162 11.0546 59.8224 10.9627C59.7282 10.8719 59.654 10.7623 59.6044 10.641C59.5549 10.5197 59.5312 10.3893 59.5348 10.2582C59.5348 9.9812 59.6307 9.74938 59.8224 9.56272C60.0142 9.37003 60.2509 9.27369 60.5326 9.27369C60.8083 9.27369 61.042 9.37003 61.2338 9.56272C61.4256 9.74938 61.5214 9.9812 61.5214 10.2582C61.5214 10.5412 61.4256 10.776 61.2338 10.9627C61.1414 11.054 61.0318 11.1259 60.9114 11.174C60.791 11.2221 60.6622 11.2454 60.5326 11.2427V11.2427ZM73.3028 17.0322V21.765H71.433V17.0683C71.433 16.5565 71.3251 16.0929 71.1094 15.6774C70.9129 15.2711 70.6118 14.925 70.2374 14.6748C69.8701 14.4213 69.4335 14.2888 68.9879 14.2955C68.5204 14.2955 68.1099 14.4219 67.7563 14.6748C67.4009 14.9312 67.1188 15.277 66.9383 15.6774C66.742 16.1142 66.6438 16.5891 66.6506 17.0683V21.765H64.7809V12.733H66.6506V13.9523C66.9429 13.513 67.3301 13.1456 67.7833 12.8775C68.2268 12.6125 68.7272 12.4801 69.2845 12.4801C70.0936 12.4801 70.7948 12.6878 71.3881 13.1033C71.9905 13.5224 72.4738 14.0921 72.7904 14.7561C73.126 15.4426 73.2968 16.2013 73.3028 17.0322V17.0322ZM78.7901 21.9366C78.3173 21.9066 77.8512 21.8093 77.4057 21.6476C76.9762 21.4961 76.5751 21.2732 76.2191 20.9882C75.8946 20.7199 75.6362 20.3799 75.464 19.9947L77.0551 19.3083C77.133 19.4708 77.2679 19.6304 77.4596 19.787C77.6574 19.9435 77.8881 20.073 78.1518 20.1753C78.4155 20.2717 78.6912 20.3199 78.9789 20.3199C79.2441 20.3224 79.508 20.2827 79.7609 20.2024C79.9901 20.1286 80.1972 19.9982 80.3632 19.8231C80.517 19.6599 80.6009 19.4426 80.597 19.218C80.597 18.953 80.5071 18.7483 80.3273 18.6038C80.1354 18.4436 79.9116 18.3266 79.671 18.2606C79.4082 18.1825 79.1444 18.1072 78.88 18.0348C78.323 17.9125 77.7805 17.7308 77.2619 17.4928C76.7765 17.258 76.3899 16.9599 76.1023 16.5987C75.8146 16.2314 75.6708 15.7828 75.6708 15.2529C75.6708 14.6748 75.8236 14.1751 76.1292 13.7536C76.446 13.3219 76.8709 12.9822 77.3608 12.7691C77.8727 12.5397 78.4274 12.4227 78.9878 12.4259C79.707 12.4259 80.3662 12.5794 80.9655 12.8865C81.5648 13.1936 82.0233 13.6151 82.3409 14.151L80.8576 15.0361C80.7598 14.8458 80.6218 14.6794 80.4531 14.5484C80.2692 14.4015 80.0627 14.2856 79.8418 14.2052C79.6151 14.1151 79.3752 14.0632 79.1317 14.0516C78.8429 14.0374 78.5539 14.0741 78.2777 14.16C78.0398 14.226 77.825 14.3574 77.6574 14.5394C77.5016 14.714 77.4237 14.9368 77.4237 15.2077C77.4237 15.4727 77.5166 15.6714 77.7024 15.8038C77.8881 15.9303 78.1219 16.0327 78.4035 16.1109C78.6912 16.1892 78.9849 16.2765 79.2845 16.3729C79.8179 16.5415 80.3183 16.7492 80.7857 16.9961C81.2532 17.2369 81.6307 17.535 81.9184 17.8902C82.2061 18.2455 82.3439 18.679 82.3319 19.1909C82.3403 19.7326 82.1589 20.2601 81.8195 20.6811C81.4839 21.1087 81.0464 21.4338 80.5071 21.6566C79.9677 21.8794 79.3954 21.9727 78.7901 21.9366V21.9366ZM92.9911 17.0412V21.765H91.1213V17.0774C91.1213 16.5655 91.0134 16.0989 90.7977 15.6774C90.6054 15.2765 90.3145 14.9315 89.9527 14.6748C89.6083 14.4309 89.1965 14.3014 88.7751 14.3045C88.3076 14.3045 87.9091 14.428 87.5795 14.6748C87.2499 14.9217 86.9952 15.2559 86.8154 15.6774C86.6372 16.1221 86.5486 16.598 86.5547 17.0774V21.765H84.6759V8.21695H86.5457V13.7897C86.7974 13.302 87.127 12.9648 87.5345 12.7781C87.948 12.5854 88.4215 12.4891 88.9548 12.4891C89.7639 12.4891 90.4681 12.6968 91.0674 13.1123C91.6667 13.5278 92.1341 14.0817 92.4697 14.7742C92.8053 15.4606 92.9791 16.2163 92.9911 17.0412V17.0412ZM95.5081 12.733H97.3779V21.765H95.5081V12.733V12.733ZM96.452 11.2427C96.321 11.246 96.1907 11.2229 96.0687 11.1749C95.9468 11.1268 95.8356 11.0546 95.7418 10.9627C95.6476 10.8719 95.5734 10.7623 95.5238 10.641C95.4743 10.5197 95.4506 10.3893 95.4542 10.2582C95.4542 9.9812 95.5501 9.74938 95.7418 9.56272C95.9336 9.37003 96.1703 9.27369 96.452 9.27369C96.7277 9.27369 96.9614 9.37003 97.1532 9.56272C97.345 9.74938 97.4408 9.9812 97.4408 10.2582C97.4408 10.5412 97.345 10.776 97.1532 10.9627C97.0608 11.054 96.9512 11.1259 96.8308 11.174C96.7104 11.2221 96.5816 11.2454 96.452 11.2427V11.2427ZM103.243 10.6827V12.733H105.778V14.6116H103.243V21.765H101.373V14.6116H100.303V12.733H101.373V10.6827C101.373 10.1889 101.493 9.74035 101.733 9.33692C101.972 8.92747 102.293 8.60231 102.694 8.36146C103.106 8.11952 103.575 7.99463 104.052 8.00018C104.411 8.00018 104.762 8.07243 105.104 8.21695C105.445 8.36146 105.751 8.58425 106.02 8.88532L104.681 10.213C104.615 10.1049 104.518 10.0197 104.402 9.96916C104.295 9.91054 104.174 9.87952 104.052 9.87884C103.945 9.87757 103.839 9.89768 103.741 9.938C103.642 9.97833 103.552 10.038 103.476 10.1137C103.401 10.1875 103.341 10.276 103.301 10.3739C103.261 10.4717 103.241 10.5768 103.243 10.6827V10.6827ZM113 14.6116H111.112L111.103 21.765H109.233L109.242 14.6116H107.813V12.733H109.242L109.233 9.8969H111.103L111.112 12.733H113V14.6116V14.6116Z" fill="#1452F5"/>
<path d="M16.3722 16.5C16.3722 17.981 16.9697 19.401 18.0332 20.4485C19.1036 21.4986 20.5438 22.0861 22.0433 22.0845V28.367C22.0433 28.5225 21.9833 28.672 21.8748 28.786C21.7657 28.8998 21.6176 28.9682 21.4603 28.9775C21.2054 28.9926 20.9501 29.0001 20.6948 29C17.3277 29 14.0981 27.6825 11.7176 25.338C9.33703 22.993 8 19.814 8 16.4985C8 13.1835 9.33853 10.004 11.7201 7.66C14.1001 5.316 17.3302 4 20.6973 4C20.9523 4 21.2083 4.0075 21.4623 4.0225C21.6203 4.0325 21.7688 4.1005 21.8773 4.214C21.9853 4.3275 22.0458 4.4775 22.0453 4.633V10.9155C21.3003 10.9155 20.5628 11.0595 19.8742 11.3405C19.1876 11.6199 18.5624 12.0309 18.0337 12.5505C17.508 13.0673 17.09 13.6832 16.8037 14.3625C16.5189 15.0391 16.3721 15.7659 16.3722 16.5V16.5ZM29.8519 23.755C29.9294 23.6445 30.0059 23.5325 30.0804 23.4195C30.1529 23.304 30.1904 23.1705 30.1889 23.0345V9.9645C30.1904 9.82889 30.1527 9.69574 30.0804 9.581C30.0059 9.468 29.9294 9.356 29.8519 9.2445C29.5514 8.8205 28.9904 9.0815 28.9904 9.647V23.354C28.9899 23.919 29.5514 24.18 29.8519 23.755ZM31.8015 13.61V19.3975C31.8015 20.098 32.5125 20.245 32.6625 19.578C33.1125 17.553 33.1125 15.455 32.6625 13.4295C32.5125 12.756 31.8015 12.9055 31.8015 13.6105V13.61ZM26.1779 6.278V26.7235C26.1779 27.1735 26.5564 27.4705 26.8829 27.2755L27.1064 27.138C27.1939 27.0769 27.2647 26.9947 27.3121 26.899C27.3594 26.8033 27.3819 26.6972 27.3774 26.5905V6.411C27.3818 6.3044 27.3593 6.1984 27.3119 6.1028C27.2646 6.0072 27.1939 5.92507 27.1064 5.864C27.0327 5.81659 26.958 5.77075 26.8824 5.7265C26.5559 5.5315 26.1779 5.8285 26.1779 6.2785V6.278ZM23.3663 4.8605V28.1405C23.3663 28.517 23.6403 28.806 23.9408 28.744L24.1663 28.694C24.3988 28.6415 24.5663 28.387 24.5663 28.093V4.908C24.5663 4.6135 24.3993 4.359 24.1663 4.3065C24.0913 4.2885 24.0163 4.2725 23.9408 4.2565C23.6403 4.1945 23.3663 4.4815 23.3663 4.8605Z" fill="#1452F5"/>
</svg>
