<svg width="212" height="46" viewBox="0 0 212 46" fill="none" xmlns="http://www.w3.org/2000/svg">
  <path
    d="M62.7219 0.00131733C57.0432 0.00131733 53.8035 3.22482 53.8035 8.56132L53.8048 8.56264C53.8048 13.7318 57.0445 17.0673 62.6116 17.0673C67.7364 17.0673 70.7267 14.4274 71.2255 10.2304H67.3478C66.9869 12.6213 65.5193 14.0664 62.6392 14.0664C59.4546 14.0664 57.5709 12.205 57.5709 8.53497C57.5709 4.86489 59.2603 3.00351 62.6392 3.00351C65.409 3.00351 66.849 4.39197 67.2363 6.81059H71.0864C70.5876 2.75322 67.9569 0.00131733 62.7219 0.00131733Z"
    fill="#121212" />
  <path fill-rule="evenodd" clip-rule="evenodd"
    d="M81.139 17.0673C86.567 17.0673 89.8907 13.7595 89.8907 8.47833C89.8907 2.97585 86.2624 0.00131733 81.139 0.00131733C75.711 0.00131733 72.3873 3.08782 72.3873 8.5903C72.3873 14.0928 76.0155 17.0673 81.139 17.0673ZM81.139 3.00219C84.1306 3.00219 86.1246 4.75292 86.1246 8.58898C86.1246 12.3131 84.296 14.0638 81.139 14.0638C78.1474 14.0638 76.1534 12.2011 76.1534 8.47701C76.1534 4.75292 77.982 3.00219 81.139 3.00219Z"
    fill="#121212" />
  <path
    d="M95.6232 0.277956H91.9123V16.7894H95.6232V5.58811C96.5933 3.7254 97.9218 2.86387 100.055 2.86387C102.713 2.86387 104.07 4.08767 104.07 6.75526V16.788H107.781V6.22569C107.781 2.27898 105.622 0 101.799 0C98.4206 0 96.5644 1.75205 95.6232 4.66993V0.277956Z"
    fill="#121212" />
  <path
    d="M113.211 11.7295H109.333L109.334 11.7308C109.749 15.0386 112.214 17.0673 117.532 17.0673C122.85 17.0673 125.093 14.8713 125.093 11.9258C125.093 9.42549 123.903 7.7011 120.302 7.28483L115.344 6.70125C113.876 6.53395 113.35 5.95037 113.35 4.97818C113.35 3.81103 114.236 2.92183 117.061 2.92183C119.886 2.92183 120.854 3.86636 121.076 5.31147H124.926C124.455 2.17096 122.432 0.00263466 117.171 0.00263466C111.91 0.00263466 109.777 2.25395 109.777 5.1995C109.777 7.78409 111.134 9.34118 114.762 9.75745L119.526 10.3134C121.105 10.5083 121.52 11.1749 121.52 12.0641C121.52 13.2589 120.44 14.1481 117.615 14.1481C114.79 14.1481 113.515 13.3696 113.211 11.7295Z"
    fill="#121212" />
  <path fill-rule="evenodd" clip-rule="evenodd"
    d="M126.504 8.58898C126.504 13.4249 129.496 17.066 135.091 17.066C139.772 17.066 142.652 14.8423 143.483 11.4515H139.688C139.134 13.0916 137.721 14.0638 135.201 14.0638C132.404 14.0638 130.604 12.4237 130.272 9.47818H143.593C143.621 3.69642 141.128 0 135.118 0C129.716 0 126.504 3.47511 126.504 8.58898ZM139.688 6.94891H130.327C130.798 4.30898 132.515 2.9192 135.091 2.9192C138.026 2.9192 139.438 4.50263 139.688 6.94891Z"
    fill="#121212" />
  <path
    d="M149.131 0.277956H145.42V16.7894H149.131V5.58811C150.101 3.7254 151.43 2.86387 153.563 2.86387C156.221 2.86387 157.578 4.08767 157.578 6.75526V16.788H161.289V6.22569C161.289 2.27898 159.13 0 155.307 0C151.929 0 150.072 1.75205 149.131 4.66993V0.277956Z"
    fill="#121212" />
  <path
    d="M166.719 11.7295H162.841L162.842 11.7308C163.257 15.0386 165.722 17.0673 171.04 17.0673C176.358 17.0673 178.601 14.8713 178.601 11.9258C178.601 9.42549 177.411 7.7011 173.81 7.28483L168.852 6.70125C167.384 6.53395 166.858 5.95037 166.858 4.97818C166.858 3.81103 167.744 2.92183 170.569 2.92183C173.394 2.92183 174.362 3.86636 174.584 5.31147H178.434C177.963 2.17096 175.94 0.00263466 170.679 0.00263466C165.418 0.00263466 163.285 2.25395 163.285 5.1995C163.285 7.78409 164.642 9.34118 168.27 9.75745L173.034 10.3134C174.613 10.5083 175.028 11.1749 175.028 12.0641C175.028 13.2589 173.948 14.1481 171.123 14.1481C168.298 14.1481 167.023 13.3696 166.719 11.7295Z"
    fill="#121212" />
  <path
    d="M189.399 20.8467L196.296 0.279274H192.417L187.653 14.7317L182.695 0.279274H178.597L183.998 14.982H187.571L186.657 17.7892H180.398V20.8467H189.399Z"
    fill="#121212" />
  <path
    d="M200.117 11.7308H196.24L196.241 11.7321C196.656 15.0399 199.121 17.0686 204.439 17.0686C209.757 17.0686 212 14.8726 212 11.9271C212 9.4268 210.809 7.70242 207.209 7.28614L202.251 6.70257C200.783 6.53527 200.257 5.95169 200.257 4.9795C200.257 3.81235 201.143 2.92315 203.968 2.92315C206.793 2.92315 207.761 3.86768 207.983 5.31279H211.833C211.362 2.17227 209.339 0.00395199 204.078 0.00395199C198.817 0.00395199 196.683 2.25527 196.683 5.20081C196.683 7.78541 198.041 9.34249 201.669 9.75877L206.433 10.3147C208.012 10.5096 208.427 11.1762 208.427 12.0654C208.427 13.2602 207.346 14.1494 204.522 14.1494C201.697 14.1494 200.422 13.3709 200.117 11.7308Z"
    fill="#121212" />
  <path fill-rule="evenodd" clip-rule="evenodd"
    d="M45.2419 22.9805V16.7891H45.2406L45.2419 16.7878V0.279026H28.79H22.6203C10.1274 0.279026 0 10.4422 0 22.9792C0 35.5162 10.1287 45.6808 22.6216 45.6808C35.1145 45.6808 45.2419 35.5176 45.2419 22.9805ZM17.4798 11.6291L28.79 0.279026V16.7891H45.2406L33.9292 28.1445H17.4798V11.6291Z"
    fill="#121212" />
</svg>