<svg width="328" height="53" viewBox="0 0 328 53" fill="none" xmlns="http://www.w3.org/2000/svg">
<g clip-path="url(#clip0_88_537)">
<path d="M73.6619 9.31087H84.7516C95.481 9.1977 103.385 16.132 103.228 26.1374C103.385 35.9422 95.4835 43.324 84.7516 43.1646H73.6619V9.31087ZM84.6847 36.9298C91.5099 36.9298 96.0883 32.6679 96.0883 26.1606C96.0883 19.5863 91.6206 15.5945 84.6847 15.5945H80.5669V36.9427H84.6847V36.9298ZM128.639 43.1877H122.265V40.7211C121.251 41.7333 120.042 42.528 118.71 43.0565C117.378 43.585 115.953 43.8362 114.521 43.7947C109.134 43.7947 105.742 40.6542 105.742 36.2122C105.742 31.6365 109.445 28.8304 115.349 28.8304H121.724V27.7089C121.778 27.0879 121.69 26.4628 121.469 25.88C121.248 25.2973 120.898 24.7719 120.445 24.3429C119.993 23.9138 119.449 23.5923 118.855 23.402C118.261 23.2117 117.632 23.1577 117.014 23.2438C115.7 23.2791 114.41 23.6126 113.244 24.2191C112.077 24.8255 111.063 25.689 110.279 26.7444L106.676 22.4825C107.999 20.8133 109.69 19.4727 111.618 18.5655C113.545 17.6584 115.656 17.2093 117.786 17.2534C119.251 17.1142 120.728 17.3 122.112 17.7976C123.496 18.2951 124.753 19.0921 125.793 20.1316C126.833 21.171 127.631 22.4273 128.128 23.8106C128.626 25.1938 128.812 26.6699 128.673 28.1333V43.1877H128.639ZM121.691 33.3829H116.271C114.003 33.3829 112.724 34.2575 112.724 35.9396C112.724 37.6217 114.16 38.6994 116.361 38.6994C117.046 38.7382 117.732 38.6371 118.377 38.4023C119.022 38.1675 119.613 37.8039 120.113 37.3337C120.612 36.8635 121.011 36.2965 121.285 35.6672C121.558 35.038 121.701 34.3597 121.704 33.6736L121.691 33.3829ZM148.549 43.7947C147.136 43.8397 145.73 43.5896 144.419 43.0603C143.109 42.5311 141.923 41.7343 140.939 40.7211V52.4086H133.99V17.7962H140.365V20.9778C141.32 19.734 142.565 18.7424 143.992 18.0892C145.418 17.4361 146.982 17.1412 148.549 17.2303C150.242 17.2462 151.913 17.6065 153.462 18.2891C155.011 18.9718 156.404 19.9626 157.558 21.201C158.711 22.4394 159.6 23.8996 160.17 25.4925C160.74 27.0855 160.98 28.7777 160.874 30.4662C160.981 32.1597 160.744 33.8573 160.175 35.4563C159.607 37.0552 158.72 38.5222 157.568 39.7684C156.415 41.0146 155.022 42.014 153.471 42.7061C151.921 43.3982 150.247 43.7685 148.549 43.7947ZM147.262 23.4907C146.366 23.474 145.476 23.6477 144.652 24.0002C143.827 24.3527 143.087 24.876 142.48 25.5356C141.873 26.1951 141.413 26.9759 141.131 27.8263C140.848 28.6767 140.749 29.5774 140.841 30.4688C140.749 31.3624 140.847 32.2653 141.129 33.1183C141.411 33.9712 141.87 34.755 142.477 35.4181C143.083 36.0812 143.823 36.6086 144.648 36.9658C145.472 37.3229 146.363 37.5018 147.262 37.4906C148.162 37.4941 149.052 37.313 149.879 36.9582C150.705 36.6035 151.45 36.0829 152.067 35.4286C152.684 34.7743 153.159 34.0003 153.464 33.1546C153.769 32.3089 153.897 31.4096 153.84 30.5125C153.909 29.6113 153.79 28.7056 153.49 27.8529C153.19 27.0001 152.717 26.2189 152.099 25.5588C151.481 24.8986 150.733 24.3739 149.902 24.0179C149.07 23.6619 148.174 23.4824 147.27 23.4907H147.262ZM179.551 43.7947C178.138 43.8397 176.731 43.5896 175.421 43.0603C174.111 42.5311 172.925 41.7343 171.94 40.7211V52.4086H164.992V17.7962H171.387V20.9778C172.341 19.737 173.582 18.7472 175.005 18.0942C176.427 17.4412 177.988 17.1446 179.551 17.2303C181.243 17.2462 182.915 17.6065 184.464 18.2891C186.013 18.9718 187.406 19.9626 188.559 21.201C189.713 22.4394 190.601 23.8996 191.172 25.4925C191.742 27.0855 191.981 28.7777 191.876 30.4662C191.983 32.1597 191.746 33.8573 191.177 35.4563C190.609 37.0552 189.722 38.5222 188.569 39.7684C187.417 41.0146 186.023 42.014 184.473 42.7061C182.923 43.3982 181.248 43.7685 179.551 43.7947ZM178.264 23.4907C177.367 23.474 176.478 23.6477 175.653 24.0002C174.829 24.3527 174.089 24.876 173.482 25.5356C172.875 26.1951 172.415 26.9759 172.132 27.8263C171.85 28.6767 171.751 29.5774 171.843 30.4688C171.751 31.3624 171.849 32.2653 172.131 33.1183C172.413 33.9712 172.872 34.755 173.478 35.4181C174.085 36.0812 174.825 36.6086 175.649 36.9658C176.474 37.3229 177.365 37.5018 178.264 37.4906C179.163 37.4941 180.054 37.313 180.88 36.9582C181.707 36.6035 182.452 36.0829 183.069 35.4286C183.685 34.7743 184.161 34.0003 184.466 33.1546C184.771 32.3089 184.899 31.4096 184.842 30.5125C184.913 29.6109 184.795 28.7044 184.496 27.8508C184.197 26.9971 183.723 26.2151 183.105 25.5546C182.487 24.894 181.738 24.3693 180.906 24.014C180.074 23.6587 179.176 23.4805 178.272 23.4907H178.264ZM217.087 43.1877L208.308 31.2301H203.236V43.1877H196.287V9.31087H209.016C216.109 9.31087 221.228 13.7297 221.228 20.2371C221.264 22.2454 220.723 24.2219 219.669 25.932C218.614 27.6422 217.091 29.0141 215.28 29.8849L224.887 43.1671H217.087V43.1877ZM203.215 25.1292H209.013C209.683 25.2003 210.361 25.1255 210.999 24.9098C211.637 24.6942 212.221 24.3429 212.71 23.8802C213.199 23.4174 213.582 22.8542 213.832 22.2292C214.083 21.6043 214.195 20.9325 214.161 20.2602C214.182 19.5933 214.061 18.9295 213.805 18.313C213.55 17.6965 213.166 17.1416 212.679 16.6853C212.191 16.2289 211.613 15.8815 210.981 15.6664C210.349 15.4512 209.678 15.3732 209.013 15.4376H203.223L203.215 25.1292ZM248.176 43.1877H241.801V40.7211C240.788 41.7333 239.578 42.528 238.247 43.0565C236.915 43.585 235.489 43.8362 234.057 43.7947C228.671 43.7947 225.279 40.6542 225.279 36.2122C225.279 31.6365 228.982 28.8304 234.886 28.8304H241.261V27.7089C241.314 27.0874 241.227 26.4618 241.006 25.8786C240.784 25.2954 240.433 24.7697 239.98 24.3406C239.527 23.9115 238.983 23.59 238.388 23.4001C237.794 23.2102 237.164 23.1568 236.546 23.2438C235.231 23.2791 233.942 23.6126 232.775 24.2191C231.608 24.8255 230.595 25.689 229.811 26.7444L226.208 22.4825C227.529 20.8166 229.217 19.4782 231.14 18.5716C233.064 17.665 235.171 17.2148 237.297 17.256C238.762 17.1168 240.239 17.3026 241.623 17.8002C243.007 18.2977 244.264 19.0947 245.304 20.1341C246.344 21.1736 247.141 22.4299 247.639 23.8131C248.137 25.1964 248.323 26.6725 248.184 28.1359V43.1903L248.176 43.1877ZM241.227 33.3829H235.794C233.527 33.3829 232.248 34.2575 232.248 35.9396C232.248 37.6217 233.684 38.6994 235.884 38.6994C236.57 38.7382 237.256 38.6371 237.901 38.4023C238.546 38.1675 239.136 37.8039 239.636 37.3337C240.136 36.8635 240.535 36.2965 240.809 35.6672C241.082 35.038 241.225 34.3597 241.227 33.6736V33.3829ZM278.977 4.68884V43.1646H272.602V40.0241C271.648 41.266 270.405 42.2565 268.981 42.9096C267.557 43.5626 265.995 43.8585 264.431 43.7716C262.735 43.7542 261.06 43.3913 259.509 42.7052C257.957 42.0191 256.562 41.0241 255.409 39.781C254.255 38.5379 253.367 37.0728 252.8 35.4752C252.232 33.8777 251.996 32.1812 252.106 30.4894C251.996 28.7976 252.232 27.1011 252.8 25.5035C253.367 23.9059 254.255 22.4409 255.409 21.1978C256.562 19.9547 257.957 18.9596 259.509 18.2735C261.06 17.5874 262.735 17.2245 264.431 17.2071C265.842 17.1394 267.252 17.3748 268.565 17.8974C269.878 18.4201 271.063 19.2179 272.041 20.2371V4.68884H278.977ZM265.733 23.4907C264.834 23.4872 263.943 23.6683 263.117 24.023C262.29 24.3778 261.545 24.8984 260.929 25.5527C260.312 26.207 259.836 26.981 259.531 27.8267C259.226 28.6723 259.098 29.5716 259.155 30.4688C259.084 31.3711 259.202 32.2782 259.502 33.1324C259.801 33.9865 260.276 34.7689 260.895 35.4296C261.514 36.0903 262.264 36.6148 263.097 36.9697C263.93 37.3245 264.828 37.5019 265.733 37.4906C266.63 37.5073 267.519 37.3336 268.344 36.9811C269.168 36.6286 269.908 36.1053 270.515 35.4457C271.122 34.7862 271.582 34.0054 271.865 33.155C272.147 32.3046 272.246 31.4039 272.154 30.5125C272.243 29.6197 272.142 28.7183 271.858 27.8669C271.575 27.0156 271.116 26.2333 270.51 25.571C269.904 24.9088 269.166 24.3813 268.343 24.0229C267.52 23.6645 266.631 23.4832 265.733 23.4907ZM305.869 43.1877H299.494V40.7211C298.48 41.7333 297.271 42.528 295.939 43.0565C294.608 43.585 293.182 43.8362 291.75 43.7947C286.363 43.7947 282.971 40.6542 282.971 36.2122C282.971 31.6365 286.675 28.8304 292.579 28.8304H298.953V27.7089C299.007 27.0874 298.92 26.4618 298.698 25.8786C298.477 25.2954 298.126 24.7697 297.673 24.3406C297.22 23.9115 296.676 23.59 296.081 23.4001C295.487 23.2102 294.857 23.1568 294.239 23.2438C292.924 23.2791 291.635 23.6126 290.468 24.2191C289.301 24.8255 288.287 25.689 287.503 26.7444L283.9 22.4825C285.221 20.8166 286.909 19.4782 288.833 18.5716C290.757 17.665 292.864 17.2148 294.99 17.256C296.454 17.1168 297.931 17.3026 299.315 17.8002C300.7 18.2977 301.957 19.0947 302.997 20.1341C304.037 21.1736 304.834 22.4299 305.332 23.8131C305.83 25.1964 306.016 26.6725 305.876 28.1359V43.1903L305.869 43.1877ZM298.953 33.3829H293.523C291.256 33.3829 289.977 34.2575 289.977 35.9396C289.977 37.6217 291.413 38.6994 293.613 38.6994C294.299 38.7382 294.985 38.6371 295.63 38.4023C296.275 38.1675 296.865 37.8039 297.365 37.3337C297.865 36.8635 298.264 36.2965 298.537 35.6672C298.811 35.038 298.953 34.3597 298.956 33.6736L298.953 33.3829ZM326.859 23.8946H325.019C324.115 23.7894 323.199 23.8865 322.337 24.1789C321.475 24.4713 320.689 24.9516 320.035 25.5851C319.382 26.2185 318.878 26.9893 318.559 27.8415C318.241 28.6938 318.116 29.6061 318.194 30.5125V43.1877H311.245V17.791H317.62V20.8209C318.451 19.7674 319.512 18.9181 320.722 18.3385C321.933 17.7588 323.26 17.4642 324.602 17.4772C325.37 17.4569 326.136 17.5629 326.869 17.791V23.8946H326.859Z" fill="#006CFF"/>
<path d="M46.9478 2.57202L59.0695 23.5782C59.5219 24.3755 59.7595 25.2765 59.759 26.193C59.7586 27.1096 59.5201 28.0104 59.067 28.8072L46.9452 49.8057C46.4878 50.597 45.8301 51.254 45.0382 51.7109C44.2463 52.1678 43.3481 52.4084 42.4337 52.4086H18.1902C17.2753 52.411 16.3761 52.1715 15.5837 51.7144C14.7913 51.2572 14.1341 50.5987 13.6787 49.8057L1.55697 28.8072C1.10452 28.0142 0.866577 27.1171 0.866577 26.2043C0.866577 25.2914 1.10452 24.3943 1.55697 23.6013L13.6787 2.60288C14.1361 1.8116 14.7938 1.15452 15.5857 0.697634C16.3776 0.240745 17.2759 0.000125259 18.1902 -6.10352e-05H42.4363C43.3471 -0.000189657 44.2422 0.236961 45.0334 0.688002C45.8245 1.13904 46.4843 1.7884 46.9478 2.57202Z" fill="#006CFF"/>
<path d="M30.3119 40.6182V44.2191L30.3171 44.2217C34.4794 44.2255 38.5149 42.7903 41.739 40.1594C44.9631 37.5285 47.1773 33.8639 48.006 29.7874C48.8347 25.7108 48.2269 21.4733 46.2856 17.7936C44.3444 14.1139 41.1892 11.2186 37.3554 9.5989C33.5216 7.97918 29.2451 7.73476 25.2515 8.9071C21.2579 10.0794 17.7931 12.5964 15.4447 16.0309C13.0964 19.4654 12.0091 23.6061 12.3674 27.7505C12.7256 31.8949 14.5074 35.7878 17.4104 38.7689C17.4336 38.8152 17.4773 38.8357 17.5005 38.8589C17.5555 38.9167 17.6158 38.9692 17.6806 39.0158C17.7152 39.0431 17.7533 39.0655 17.7939 39.0827C17.8565 39.1289 17.9248 39.167 17.9972 39.1958C18.0409 39.2164 18.0873 39.2164 18.131 39.2396L18.3343 39.3064C18.3848 39.3237 18.438 39.3315 18.4913 39.3296C18.5608 39.3296 18.6277 39.3527 18.6946 39.3527C18.7409 39.3527 18.8079 39.3296 18.8748 39.3296C18.9143 39.3115 18.9574 39.3027 19.0009 39.3039L19.2042 39.237C19.2479 39.2164 19.2943 39.2164 19.338 39.1933C19.4169 39.1646 19.4921 39.1266 19.5619 39.0801C19.5851 39.0595 19.6288 39.0595 19.652 39.0364C19.7581 38.9745 19.8558 38.8993 19.9428 38.8126L29.2593 29.728C29.5991 29.8442 29.9554 29.905 30.3145 29.9081C31.047 29.9081 31.763 29.691 32.372 29.2843C32.981 28.8776 33.4557 28.2995 33.736 27.6232C34.0163 26.9469 34.0897 26.2027 33.9468 25.4848C33.8039 24.7668 33.4511 24.1073 32.9332 23.5897C32.4153 23.0721 31.7554 22.7196 31.037 22.5767C30.3186 22.4339 29.574 22.5072 28.8972 22.7874C28.2205 23.0675 27.6421 23.5419 27.2352 24.1506C26.8283 24.7592 26.6111 25.4748 26.6111 26.2068C26.6099 26.5331 26.6549 26.8578 26.7449 27.1714L24.0503 29.7975C23.414 28.7043 23.0808 27.4613 23.0852 26.1966C23.0852 24.7685 23.5087 23.3724 24.3021 22.1847C25.0956 20.997 26.2235 20.071 27.5432 19.5235C28.863 18.9761 30.3155 18.8318 31.7173 19.1089C33.1191 19.3861 34.4072 20.0721 35.4191 21.0805C36.4309 22.0889 37.1211 23.3743 37.4023 24.7745C37.6836 26.1746 37.5434 27.6267 36.9994 28.9472C36.4554 30.2677 35.532 31.3975 34.3458 32.1939C33.1597 32.9903 31.764 33.4175 30.3351 33.4215V37.0224C32.4796 37.0224 34.5759 36.3869 36.3589 35.1962C38.142 34.0055 39.5317 32.3131 40.3524 30.3331C41.173 28.353 41.3877 26.1742 40.9694 24.0722C40.551 21.9702 39.5184 20.0394 38.002 18.5239C36.4856 17.0085 34.5536 15.9764 32.4504 15.5583C30.3471 15.1402 28.167 15.3548 26.1858 16.175C24.2045 16.9951 22.5112 18.384 21.3198 20.166C20.1284 21.948 19.4924 24.0431 19.4924 26.1863C19.4833 28.3937 20.1575 30.5498 21.4227 32.3593L18.8182 34.8953C16.9028 32.3983 15.8685 29.3377 15.8765 26.1914C15.8765 23.3381 16.7231 20.5488 18.3093 18.1763C19.8955 15.8038 22.15 13.9547 24.7877 12.8628C27.4255 11.7709 30.3279 11.4852 33.1281 12.0418C35.9283 12.5985 38.5005 13.9725 40.5193 15.9901C42.5381 18.0078 43.913 20.5784 44.4699 23.3769C45.0269 26.1754 44.7411 29.0762 43.6485 31.7123C42.5559 34.3485 40.7057 36.6016 38.3318 38.1868C35.9579 39.7721 33.167 40.6182 30.3119 40.6182Z" fill="white"/>
</g>
<defs>
<clipPath id="clip0_88_537">
<rect width="327.75" height="52.4087" fill="white"/>
</clipPath>
</defs>
</svg>
