<svg height="224" viewBox="0 0 838 224" width="838" xmlns="http://www.w3.org/2000/svg"><g fill="none"><g fill="#000" transform="translate(11.003626 26.996543)"><path d="m37.4938509 191.753457c-4.6584879-.867216-8.9283573-3.171756-12.21-6.59-3.3710975-3.434176-5.2042954-8.089344-5.08-12.9v-115.5700001c-3.2552675.5565209-6.6026197.1246044-9.61-1.24-2.88337769-1.1936937-5.4283406-3.0792331-7.41000005-5.49-1.83463879-2.2868823-2.93293228-5.0761991-3.15-8-.23941675-3.1499206.79851422-6.2637135 2.88-8.64 2.35212147-3.0919736 5.2332859-5.7429157 8.51000005-7.83 3.2830769-2.0998518 6.7792251-3.8462499 10.43-5.21 3.7174206-1.3916354 7.5222877-2.5374382 11.39-3.43 3.9266666-.92 7.7233333-1.7433333 11.39-2.47 10.1631989-1.644837 20.4873592-2.0611608 30.75-1.24 9.9806767.7628205 19.7884145 3.0318503 29.0900001 6.73 9.197664 3.6831279 17.707309 8.8930457 25.17 15.41 7.80703 6.8737543 14.114724 15.2817435 18.53 24.7 2.901041 5.9735546 5.02177 12.2954119 6.31 18.81 1.274746 6.4678921 2.010604 13.0304071 2.2 19.62.213332 8.4345191-.797176 16.8554201-3 25.0000001-4.361452 16.042411-13.331554 30.45368-25.8 41.45-6.302871 5.537027-13.351608 10.162129-20.94 13.74-6.879193 3.141485-14.1110661 5.444672-21.5400001 6.86-7.6 1.46-15.06 2.74-22.38 3.84-3.66.546667-7.5466667 1.143333-11.66 1.79-3.9483716.639808-7.9402096.974133-11.94 1zm29.65-145.7700001c-2.38 0-4.62.1-6.72.28s-4.35.46-6.73.82v110.0800001c.9246955.020168 1.848345-.073876 2.75-.28.7190998-.183074 1.4579673-.277112 2.2-.28.6510781.013449 1.2998795-.081168 1.92-.28 2.56-.36 4.6666666-.633333 6.32-.82 1.64-.18 3.2-.41 4.66-.69s3-.59 4.53-1 3.34-.82 5.36-1.37c10.6133333-2.74 18.9833331-7.073333 25.1100001-13s10.746667-14.116667 13.86-24.57c2.000035-5.918401 2.93121-12.14542 2.75-18.3900001-.15879-6.0943617-1.317549-12.121258-3.43-17.84-2.112246-5.6796359-5.22849-10.9332157-9.2-15.51-4.094737-4.7165356-9.146727-8.5072325-14.8200001-11.12-4.4899231-2.1175687-9.2520206-3.6017277-14.15-4.41-4.66-.7066667-9.4633334-1.2466667-14.41-1.62z"/><path d="m157.093851 115.713457c1.303307-5.369898 3.097524-10.60861 5.36-15.65 2.299337-5.157243 5.102976-10.0744972 8.37-14.6800001 3.254598-4.6331961 6.981224-8.9161354 11.12-12.78 3.963161-3.7360316 8.446325-6.8786251 13.31-9.33 7.813322-4.2086801 16.516983-6.4951479 25.39-6.67 8.192275-.178255 16.315548 1.5326282 23.74 5 7.407947 3.5500158 13.82201 8.8784631 18.67 15.51 5.291897 7.265771 8.774892 15.6887229 10.16 24.5700001.878138 5.862013 1.38249 11.77395 1.51 17.7.061145 5.858848-.539324 11.705872-1.79 17.43-2.071248 9.174259-5.839302 17.880466-11.11 25.67-5.348229 8.263139-12.119789 15.512094-20 21.41-7.548051 5.663356-16.273458 9.556125-25.53 11.39-9.24 1.833333-18.526667.37-27.86-4.39-4.045138-1.908338-7.868121-4.255784-11.4-7-3.467242-2.737922-6.557342-5.922171-9.19-9.47-3.014614-3.842597-5.465949-8.095392-7.28-12.63-1.758953-4.460203-3.179634-9.046496-4.25-13.72-1.285904-5.049523-1.76183-10.271207-1.41-15.47.346453-5.109378.987519-10.194501 1.92-15.23zm32.94 5.76c-.55 2.93-1 5.81-1.37 8.65-.370029 2.871461-.370029 5.778538 0 8.65.488573 4.008506 1.64809 7.906242 3.43 11.53 1.57034 3.268772 3.92748 6.096653 6.86 8.23 2.851912 2.022555 6.253871 3.125139 9.75 3.16 3.66.093333 7.593333-1.05 11.8-3.43 5.333333-3.113333 9.91-7.92 13.73-14.42 3.742335-6.211213 6.172306-13.123359 7.14-20.31.935885-6.745962.179876-13.618771-2.2-20-2.38-6.3133334-7.046667-10.8433334-14-13.5900001-4.348124-.042382-8.654835.8476034-12.63 2.61-3.721713 1.6657905-7.11001 3.9935505-10 6.87-2.937196 2.9603731-5.432805 6.3282661-7.41 10.0000001-2.104891 3.833007-3.813717 7.870528-5.1 12.05z"/><path d="m278.343851 115.713457c1.299859-5.369627 3.090732-10.60835 5.35-15.65 2.307034-5.153341 5.110254-10.0698605 8.37-14.6800001 3.25753-4.6308996 6.983904-8.9135486 11.12-12.78 3.964933-3.7338554 8.447766-6.8762167 13.31-9.33 7.814172-4.2065234 16.517303-6.4928519 25.39-6.67 8.198863-.1799 16.329005 1.5309883 23.76 5 7.406369 3.5524763 13.81988 8.880465 18.67 15.51 5.288675 7.2665305 8.768248 15.6894983 10.15 24.5700001.888026 5.860848 1.392432 11.773424 1.51 17.7.064685 5.858481-.532432 11.70553-1.78 17.43-2.074984 9.174741-5.846397 17.88087-11.12 25.67-5.342515 8.267598-12.114952 15.517491-20 21.41-7.548051 5.663356-16.273458 9.556125-25.53 11.39-9.266667 1.853333-18.566667.4-27.9-4.36-4.041665-1.908981-7.861265-4.256409-11.39-7-3.470376-2.737686-6.563813-5.921909-9.2-9.47-3.00806-3.845256-5.455751-8.097571-7.27-12.63-1.76228-4.459952-3.186304-9.046245-4.26-13.72-1.278999-5.060803-1.74482-10.292844-1.38-15.5.351392-5.108898.992423-10.19374 1.92-15.23zm32.94 5.76c-.546667 2.926667-1.006667 5.81-1.38 8.65-.360053 2.872093-.360053 5.777907 0 8.65.491723 4.0091 1.654629 7.906863 3.44 11.53 1.563915 3.272898 3.922264 6.10223 6.86 8.23 2.847666 2.023507 6.246771 3.126296 9.74 3.16 3.66.093333 7.596667-1.05 11.81-3.43 5.3-3.113333 9.873333-7.92 13.72-14.42 3.757251-6.20679 6.197811-13.120005 7.17-20.31.935885-6.745962.179876-13.618771-2.2-20-2.38-6.3133334-7.046667-10.8433334-14-13.5900001-4.34488-.0421918-8.648291.8478163-12.62 2.61-3.724566 1.660702-7.113736 3.9890618-10 6.87-2.937196 2.9603731-5.432805 6.3282661-7.41 10.0000001-2.119335 3.829808-3.838413 7.867798-5.13 12.05z"/><path d="m526.403851 159.353457c3.106667 5.333333 4.16 10.093333 3.16 14.28-.761534 3.835574-2.97573 7.228525-6.18 9.47-3.374671 2.17069-7.416446 3.057822-11.39 2.5-4.493333-.46-8.826667-2.793333-13-7-4.230113 3.02199-8.84405 5.466839-13.72 7.27-4.944113 1.792842-9.985461 3.305246-15.1 4.53-7.828044 1.836163-15.989998 1.695262-23.75-.41-14.94362-4.007669-27.472679-14.190939-34.45-28-3.661146-7.105815-5.709816-14.931734-6-22.92-.572949-8.836625.12074-17.709776 2.06-26.35 1.807343-8.131174 4.913873-15.9177598 9.2-23.0600001 4.265154-7.0148746 9.917165-13.0854264 16.61-17.84 7.284772-5.1252726 15.557044-8.6773433 24.29-10.43 5.434674-1.1017115 10.964803-1.6644382 16.51-1.68 5.561555.0002975 11.113645.4585121 16.6 1.37-.18-4-.32-8.65-.41-13.86s-.13-10.29-.13-15.24.18-9.37.54-13.31c.183968-2.8299855.65301-5.6341877 1.4-8.37 1.108809-3.08277557 3.176654-5.72891558 5.9-7.54999998 2.477677-1.68187824 5.377627-2.63466927 8.37-2.75 3.029127-.06150657 6.018336.69875462 8.65 2.2 2.887199 1.61194446 5.227193 4.0494384 6.72 7 .367731.91574028.830248 1.79050048 1.38 2.60999998.527195.7689058.812731 1.6777455.82 2.61.18 24 .226667 47.6966667.14 71.09-.086667 23.3933331-.133333 47.0933331-.14 71.1000001.73 1.1 1.37 1.99 1.92 2.74zm-38.16-15.09c.552261-.699493 1.256796-1.263805 2.06-1.65.891881-.372938 1.482659-1.233674 1.51-2.2v-22.64c0-7.413333-.09-14.963333-.27-22.6500001-4.523618-.9259375-9.115802-1.4778022-13.73-1.65-4.661785-.1898247-9.327168.274694-13.86 1.38-4.402314 1.0683327-8.573555 2.9286182-12.31 5.4900001-3.929233 2.775639-7.015947 6.582124-8.92 11-1.1 3.466667-2.1 6.943333-3 10.43-.894021 3.313583-1.400739 6.719669-1.51 10.15-.09575 3.294007.319166 6.582977 1.23 9.75.977934 3.324588 2.561122 6.440113 4.67 9.19.807763.804141 1.680748 1.53999 2.61 2.2 1 .73 3 2 5.9 3.84 6.513314.575692 13.076822-.075571 19.35-1.92 6.320234-1.979149 11.957604-5.693507 16.27-10.72z"/><path d="m581.773851 164.303457c2.12347 1.986428 3.844776 4.362985 5.07 7 1.32886 2.64843 2.078808 5.549365 2.2 8.51.108612 2.792564-.555792 5.560912-1.92 8-1.373333 2.466667-3.8 4.34-7.28 5.62-2.924502.93033-6.034359 1.119327-9.05.55-3.400675-.585493-6.689842-1.695376-9.75-3.29-3.089729-1.573943-5.952349-3.558603-8.51-5.9-2.322516-2.087574-4.150215-4.666849-5.35-7.55-.393465-1.019143-.671857-2.079048-.83-3.16-.16811-1.045196-.258358-2.101435-.27-3.16v-152.3900001c-.042908-4.0972348 1.711278-8.0076084 4.8-10.69999998 2.902875-2.7871064 6.593305-4.61311819 10.57-5.23 2.003612-.15528008 4.016994.12795852 5.9.83 2.120873.73844451 4.114523 1.80104961 5.91 3.15 1.775398 1.33086829 3.307874 2.95806675 4.53 4.80999998 1.1447 1.7042103 1.763648 3.7070989 1.78 5.76v18.95c0 7.8733333.046667 16.4766667.14 25.81s.136667 19 .13 29c0 10.0000001-.043333 19.5600001-.13 28.6800001s-.133333 17.493333-.14 25.12c0 7.593333-.09 13.676667-.27 18.25z"/><path d="m691.763851 144.533457c3.806457-1.09644 7.838335-1.144809 11.67-.14 3.080185.819494 5.819259 2.598841 7.82 5.08 1.872462 2.528421 2.751411 5.656338 2.47 8.79-.18 3.466667-1.733333 7.133333-4.66 11-2.671504 3.358284-6.047617 6.089215-9.89 8-3.804775 2.014359-7.748067 3.755423-11.8 5.21-8.267371 3.109261-16.817653 5.406752-25.53 6.86-7.495634 1.281349-15.154366 1.281349-22.65 0-7.061539-1.297306-13.784857-4.019297-19.76-8-6.70268-4.580259-12.517155-10.34052-17.16-17-3.725119-5.076973-6.468863-10.805258-8.09-16.89-1.74803-6.30818-2.718558-12.806351-2.89-19.35-.184375-6.538036.369122-13.076011 1.65-19.49 1.138409-5.960516 2.981339-11.7645723 5.49-17.2900001 3.106667-6.4133333 8.046667-12.27 14.82-17.57 6.817607-5.3298963 14.408208-9.588861 22.51-12.63 8.092866-3.0782138 16.614089-4.8829859 25.26-5.35 8.6-.46 16.193333.8733333 22.78 4 5.503591 2.5734848 10.341612 6.3782085 14.14 11.12 3.808593 4.6128641 6.57204 9.9964688 8.1 15.78 1.460097 5.6115733 1.600431 11.4850982.41 17.1600001-1.34218 6.028378-4.447173 11.52129-8.92 15.78-4.427553 4.465746-9.521543 8.217082-15.1 11.12-5.496491 2.84338-11.175639 5.31882-17 7.41-5.895368 2.118123-11.904787 3.904256-18 5.35-6.126667 1.473333-12.03 3.12-17.71 4.94 3.398226 4.114996 8.012001 7.048488 13.18 8.38 5.081493 1.198151 10.343146 1.428836 15.51.68 5.617508-.791801 11.107373-2.31471 16.33-4.53 5.281905-2.180105 10.416119-4.702116 15.37-7.55zm-55.45-47.2100001c-3.874465 2.0541234-7.103951 5.1416921-9.33 8.9200001-2 3.573333-3.463333 8.573333-4.39 15 4.753333-1.46 10.106667-3.016667 16.06-4.67s11.58-3.39 16.88-5.21c4.675151-1.538846 9.181673-3.54919 13.45-6 3.66-2.2 5.490023-4.58 5.490023-7.1400001.002693-1.4447685-.230369-2.8802986-.690023-4.25-.447287-1.3655962-1.515963-2.4379821-2.88-2.89-5.10526-1.8202377-10.61291-2.2007914-15.92-1.1-4.782786.8414527-9.411436 2.3989447-13.73 4.62z"/><path d="m721.863851 163.603457c-1.102285-3.033306-1.585137-6.256848-1.42-9.48.151964-2.97567.975908-5.878279 2.41-8.49 1.403378-2.537033 3.52102-4.605994 6.09-5.95 2.978275-1.470932 6.33044-2.011042 9.62-1.55 1.983941.162119 3.911966.737801 5.66 1.69 1.687563.941672 3.255527 2.083231 4.67 3.4 1.413333 1.333333 2.83 2.75 4.25 4.25 4.000144 4.281619 9.009334 7.492727 14.57 9.34 3.696872 1.157237 7.483106 2.006799 11.32 2.54 2.293667.112509 4.552276-.596631 6.37-2 1.532006-1.222497 2.660904-2.877518 3.24-4.75.566743-1.974451.709869-4.046376.42-6.08-.176658-1.916979-.914002-3.739472-2.12-5.24-3.206114-3.204168-7.298778-5.374151-11.75-6.23-4.357318-.871175-8.658391-2.003213-12.88-3.39-5.760313-1.931414-11.346901-4.346694-16.7-7.22-5.367904-2.823664-9.941018-6.949782-13.3-12-3.477525-5.00321-5.665638-10.787797-6.37-16.8400001-.670193-5.8403464-.187744-11.7554474 1.42-17.41 1.609193-5.6793818 4.354639-10.9729559 8.07-15.56 3.746792-4.6987374 8.355911-8.6392285 13.58-11.61 4.014748-2.2766884 8.426933-3.7666493 13-4.39 4.7342-.6555068 9.525473-.7963279 14.29-.42 4.849158.3826263 9.643265 1.2844546 14.3 2.69 4.418053 1.3099013 8.758341 2.8690665 13 4.67 4.2159 1.8087883 7.773417 4.870557 10.19 8.77 2.161797 3.4321383 3.290042 7.4139752 3.25 11.47-.057879 3.7118795-1.481995 7.2721711-4 10-2.546667 2.8333333-6.273333 4.25-11.18 4.25-2.81395.0399444-5.606814-.4907338-8.21-1.56-2.446667-1.0333333-4.993333-2.0333333-7.64-3-3.540405-1.3510326-7.235659-2.2546901-11-2.69-3.96-.4733333-7.166667-.2366667-9.62.71-1.007507.3586905-1.892012.9969214-2.55 1.84-.981488 1.1001625-1.70568 2.4050743-2.12 3.82-.473513 1.4620762-.573214 3.0194799-.29 4.53.376774 1.6247545 1.484495 2.9835584 3 3.68 4.562923 2.4643237 9.408452 4.3649261 14.43 5.6600001 5.1 1.333333 10.1 2.843333 15 4.53 4.804906 1.651709 9.410157 3.835262 13.73 6.51 4.42651 2.828078 8.074168 6.71983 10.61 11.32 4.048554 6.816415 6.244507 14.572922 6.37 22.5.147386 7.574781-1.450521 15.081867-4.67 21.94-3.254877 6.849661-8.107716 12.81711-14.15 17.4-6.32043 4.846964-13.865435 7.838651-21.79 8.64-5.773649.56645-11.600319.229063-17.27-1-5.711306-1.247322-11.232526-3.244645-16.42-5.94-5.240859-2.713499-10.172871-5.98586-14.71-9.76-4.329692-3.579211-8.310789-7.560308-11.89-11.89z"/></g><g transform="translate(7.003626 6.996543)"><path d="m37.4938509 191.753457c-4.6584879-.867216-8.9283573-3.171756-12.21-6.59-3.3710975-3.434176-5.2042954-8.089344-5.08-12.9v-115.5700001c-3.2552675.5565209-6.6026197.1246044-9.61-1.24-2.88337769-1.1936937-5.4283406-3.0792331-7.41000005-5.49-1.83463879-2.2868823-2.93293228-5.0761991-3.15-8-.23941675-3.1499206.79851422-6.2637135 2.88-8.64 2.35212147-3.0919736 5.2332859-5.7429157 8.51000005-7.83 3.2830769-2.0998518 6.7792251-3.8462499 10.43-5.21 3.7174206-1.3916354 7.5222877-2.5374382 11.39-3.43 3.9266666-.92 7.7233333-1.7433333 11.39-2.47 10.1631989-1.644837 20.4873592-2.0611608 30.75-1.24 9.9806767.7628205 19.7884145 3.0318503 29.0900001 6.73 9.197664 3.6831279 17.707309 8.8930457 25.17 15.41 7.80703 6.8737543 14.114724 15.2817435 18.53 24.7 2.901041 5.9735546 5.02177 12.2954119 6.31 18.81 1.274746 6.4678921 2.010604 13.0304071 2.2 19.62.213332 8.4345191-.797176 16.8554201-3 25.0000001-4.361452 16.042411-13.331554 30.45368-25.8 41.45-6.302871 5.537027-13.351608 10.162129-20.94 13.74-6.879193 3.141485-14.1110661 5.444672-21.5400001 6.86-7.6 1.46-15.06 2.74-22.38 3.84-3.66.546667-7.5466667 1.143333-11.66 1.79-3.9483716.639808-7.9402096.974133-11.94 1zm29.65-145.7700001c-2.38 0-4.62.1-6.72.28s-4.35.46-6.73.82v110.0800001c.9246955.020168 1.848345-.073876 2.75-.28.7190998-.183074 1.4579673-.277112 2.2-.28.6510781.013449 1.2998795-.081168 1.92-.28 2.56-.36 4.6666666-.633333 6.32-.82 1.64-.18 3.2-.41 4.66-.69s3-.59 4.53-1 3.34-.82 5.36-1.37c10.6133333-2.74 18.9833331-7.073333 25.1100001-13s10.746667-14.116667 13.86-24.57c2.000035-5.918401 2.93121-12.14542 2.75-18.3900001-.15879-6.0943617-1.317549-12.121258-3.43-17.84-2.112246-5.6796359-5.22849-10.9332157-9.2-15.51-4.094737-4.7165356-9.146727-8.5072325-14.8200001-11.12-4.4899231-2.1175687-9.2520206-3.6017277-14.15-4.41-4.66-.7066667-9.4633334-1.2466667-14.41-1.62z" fill="#ffadde"/><path d="m157.093851 115.713457c1.303307-5.369898 3.097524-10.60861 5.36-15.65 2.299337-5.157243 5.102976-10.0744972 8.37-14.6800001 3.254598-4.6331961 6.981224-8.9161354 11.12-12.78 3.963161-3.7360316 8.446325-6.8786251 13.31-9.33 7.813322-4.2086801 16.516983-6.4951479 25.39-6.67 8.192275-.178255 16.315548 1.5326282 23.74 5 7.407947 3.5500158 13.82201 8.8784631 18.67 15.51 5.291897 7.265771 8.774892 15.6887229 10.16 24.5700001.878138 5.862013 1.38249 11.77395 1.51 17.7.061145 5.858848-.539324 11.705872-1.79 17.43-2.071248 9.174259-5.839302 17.880466-11.11 25.67-5.348229 8.263139-12.119789 15.512094-20 21.41-7.548051 5.663356-16.273458 9.556125-25.53 11.39-9.24 1.833333-18.526667.37-27.86-4.39-4.045138-1.908338-7.868121-4.255784-11.4-7-3.467242-2.737922-6.557342-5.922171-9.19-9.47-3.014614-3.842597-5.465949-8.095392-7.28-12.63-1.758953-4.460203-3.179634-9.046496-4.25-13.72-1.285904-5.049523-1.76183-10.271207-1.41-15.47.346453-5.109378.987519-10.194501 1.92-15.23zm32.94 5.76c-.55 2.93-1 5.81-1.37 8.65-.370029 2.871461-.370029 5.778538 0 8.65.488573 4.008506 1.64809 7.906242 3.43 11.53 1.57034 3.268772 3.92748 6.096653 6.86 8.23 2.851912 2.022555 6.253871 3.125139 9.75 3.16 3.66.093333 7.593333-1.05 11.8-3.43 5.333333-3.113333 9.91-7.92 13.73-14.42 3.742335-6.211213 6.172306-13.123359 7.14-20.31.935885-6.745962.179876-13.618771-2.2-20-2.38-6.3133334-7.046667-10.8433334-14-13.5900001-4.348124-.042382-8.654835.8476034-12.63 2.61-3.721713 1.6657905-7.11001 3.9935505-10 6.87-2.937196 2.9603731-5.432805 6.3282661-7.41 10.0000001-2.104891 3.833007-3.813717 7.870528-5.1 12.05z" fill="#adbffd"/><path d="m278.343851 115.713457c1.299859-5.369627 3.090732-10.60835 5.35-15.65 2.307034-5.153341 5.110254-10.0698605 8.37-14.6800001 3.25753-4.6308996 6.983904-8.9135486 11.12-12.78 3.964933-3.7338554 8.447766-6.8762167 13.31-9.33 7.814172-4.2065234 16.517303-6.4928519 25.39-6.67 8.198863-.1799 16.329005 1.5309883 23.76 5 7.406369 3.5524763 13.81988 8.880465 18.67 15.51 5.288675 7.2665305 8.768248 15.6894983 10.15 24.5700001.888026 5.860848 1.392432 11.773424 1.51 17.7.064685 5.858481-.532432 11.70553-1.78 17.43-2.074984 9.174741-5.846397 17.88087-11.12 25.67-5.342515 8.267598-12.114952 15.517491-20 21.41-7.548051 5.663356-16.273458 9.556125-25.53 11.39-9.266667 1.853333-18.566667.4-27.9-4.36-4.041665-1.908981-7.861265-4.256409-11.39-7-3.470376-2.737686-6.563813-5.921909-9.2-9.47-3.00806-3.845256-5.455751-8.097571-7.27-12.63-1.76228-4.459952-3.186304-9.046245-4.26-13.72-1.278999-5.060803-1.74482-10.292844-1.38-15.5.351392-5.108898.992423-10.19374 1.92-15.23zm32.94 5.76c-.546667 2.926667-1.006667 5.81-1.38 8.65-.360053 2.872093-.360053 5.777907 0 8.65.491723 4.0091 1.654629 7.906863 3.44 11.53 1.563915 3.272898 3.922264 6.10223 6.86 8.23 2.847666 2.023507 6.246771 3.126296 9.74 3.16 3.66.093333 7.596667-1.05 11.81-3.43 5.3-3.113333 9.873333-7.92 13.72-14.42 3.757251-6.20679 6.197811-13.120005 7.17-20.31.935885-6.745962.179876-13.618771-2.2-20-2.38-6.3133334-7.046667-10.8433334-14-13.5900001-4.34488-.0421918-8.648291.8478163-12.62 2.61-3.724566 1.660702-7.113736 3.9890618-10 6.87-2.937196 2.9603731-5.432805 6.3282661-7.41 10.0000001-2.119335 3.829808-3.838413 7.867798-5.13 12.05z" fill="#92ebeb"/><path d="m526.403851 159.353457c3.106667 5.333333 4.16 10.093333 3.16 14.28-.761534 3.835574-2.97573 7.228525-6.18 9.47-3.374671 2.17069-7.416446 3.057822-11.39 2.5-4.493333-.46-8.826667-2.793333-13-7-4.230113 3.02199-8.84405 5.466839-13.72 7.27-4.944113 1.792842-9.985461 3.305246-15.1 4.53-7.828044 1.836163-15.989998 1.695262-23.75-.41-14.94362-4.007669-27.472679-14.190939-34.45-28-3.661146-7.105815-5.709816-14.931734-6-22.92-.572949-8.836625.12074-17.709776 2.06-26.35 1.807343-8.131174 4.913873-15.9177598 9.2-23.0600001 4.265154-7.0148746 9.917165-13.0854264 16.61-17.84 7.284772-5.1252726 15.557044-8.6773433 24.29-10.43 5.434674-1.1017115 10.964803-1.6644382 16.51-1.68 5.561555.0002975 11.113645.4585121 16.6 1.37-.18-4-.32-8.65-.41-13.86s-.13-10.29-.13-15.24.18-9.37.54-13.31c.183968-2.8299855.65301-5.6341877 1.4-8.37 1.108809-3.08277557 3.176654-5.72891558 5.9-7.54999998 2.477677-1.68187824 5.377627-2.63466927 8.37-2.75 3.029127-.06150657 6.018336.69875462 8.65 2.2 2.887199 1.61194446 5.227193 4.0494384 6.72 7 .367731.91574028.830248 1.79050048 1.38 2.60999998.527195.7689058.812731 1.6777455.82 2.61.18 24 .226667 47.6966667.14 71.09-.086667 23.3933331-.133333 47.0933331-.14 71.1000001.73 1.1 1.37 1.99 1.92 2.74zm-38.16-15.09c.552261-.699493 1.256796-1.263805 2.06-1.65.891881-.372938 1.482659-1.233674 1.51-2.2v-22.64c0-7.413333-.09-14.963333-.27-22.6500001-4.523618-.9259375-9.115802-1.4778022-13.73-1.65-4.661785-.1898247-9.327168.274694-13.86 1.38-4.402314 1.0683327-8.573555 2.9286182-12.31 5.4900001-3.929233 2.775639-7.015947 6.582124-8.92 11-1.1 3.466667-2.1 6.943333-3 10.43-.894021 3.313583-1.400739 6.719669-1.51 10.15-.09575 3.294007.319166 6.582977 1.23 9.75.977934 3.324588 2.561122 6.440113 4.67 9.19.807763.804141 1.680748 1.53999 2.61 2.2 1 .73 3 2 5.9 3.84 6.513314.575692 13.076822-.075571 19.35-1.92 6.320234-1.979149 11.957604-5.693507 16.27-10.72z" fill="#95f1c5"/><path d="m581.773851 164.303457c2.12347 1.986428 3.844776 4.362985 5.07 7 1.32886 2.64843 2.078808 5.549365 2.2 8.51.108612 2.792564-.555792 5.560912-1.92 8-1.373333 2.466667-3.8 4.34-7.28 5.62-2.924502.93033-6.034359 1.119327-9.05.55-3.400675-.585493-6.689842-1.695376-9.75-3.29-3.089729-1.573943-5.952349-3.558603-8.51-5.9-2.322516-2.087574-4.150215-4.666849-5.35-7.55-.393465-1.019143-.671857-2.079048-.83-3.16-.16811-1.045196-.258358-2.101435-.27-3.16v-152.3900001c-.042908-4.0972348 1.711278-8.0076084 4.8-10.69999998 2.902875-2.7871064 6.593305-4.61311819 10.57-5.23 2.003612-.15528008 4.016994.12795852 5.9.83 2.120873.73844451 4.114523 1.80104961 5.91 3.15 1.775398 1.33086829 3.307874 2.95806675 4.53 4.80999998 1.1447 1.7042103 1.763648 3.7070989 1.78 5.76v18.95c0 7.8733333.046667 16.4766667.14 25.81s.136667 19 .13 29c0 10.0000001-.043333 19.5600001-.13 28.6800001s-.133333 17.493333-.14 25.12c0 7.593333-.09 13.676667-.27 18.25z" fill="#ffe375"/><path d="m691.763851 144.533457c3.806457-1.09644 7.838335-1.144809 11.67-.14 3.080185.819494 5.819259 2.598841 7.82 5.08 1.872462 2.528421 2.751411 5.656338 2.47 8.79-.18 3.466667-1.733333 7.133333-4.66 11-2.671504 3.358284-6.047617 6.089215-9.89 8-3.804775 2.014359-7.748067 3.755423-11.8 5.21-8.267371 3.109261-16.817653 5.406752-25.53 6.86-7.495634 1.281349-15.154366 1.281349-22.65 0-7.061539-1.297306-13.784857-4.019297-19.76-8-6.70268-4.580259-12.517155-10.34052-17.16-17-3.725119-5.076973-6.468863-10.805258-8.09-16.89-1.74803-6.30818-2.718558-12.806351-2.89-19.35-.184375-6.538036.369122-13.076011 1.65-19.49 1.138409-5.960516 2.981339-11.7645723 5.49-17.2900001 3.106667-6.4133333 8.046667-12.27 14.82-17.57 6.817607-5.3298963 14.408208-9.588861 22.51-12.63 8.092866-3.0782138 16.614089-4.8829859 25.26-5.35 8.6-.46 16.193333.8733333 22.78 4 5.503591 2.5734848 10.341612 6.3782085 14.14 11.12 3.800954 4.5952802 6.564011 9.9576577 8.1 15.72 1.460097 5.6115733 1.600431 11.4850982.41 17.1600001-1.331095 6.049896-4.436883 11.565106-8.92 15.84-4.427553 4.465746-9.521543 8.217082-15.1 11.12-5.496491 2.84338-11.175639 5.31882-17 7.41-5.895368 2.118123-11.904787 3.904256-18 5.35-6.126667 1.473333-12.03 3.12-17.71 4.94 3.398226 4.114996 8.012001 7.048488 13.18 8.38 5.081493 1.198151 10.343146 1.428836 15.51.68 5.617508-.791801 11.107373-2.31471 16.33-4.53 5.281905-2.180105 10.416119-4.702116 15.37-7.55zm-55.45-47.2100001c-3.874465 2.0541234-7.103951 5.1416921-9.33 8.9200001-2 3.573333-3.463333 8.573333-4.39 15 4.753333-1.46 10.106667-3.016667 16.06-4.67s11.58-3.39 16.88-5.21c4.675151-1.538846 9.181673-3.54919 13.45-6 3.66-2.2 5.490023-4.58 5.490023-7.1400001.002693-1.4447685-.230369-2.8802986-.690023-4.25-.447287-1.3655962-1.515963-2.4379821-2.88-2.89-5.10526-1.8202377-10.61291-2.2007914-15.92-1.1-4.782786.8414527-9.411436 2.3989447-13.73 4.62z" fill="#ffc48c"/><path d="m721.863851 163.603457c-1.102285-3.033306-1.585137-6.256848-1.42-9.48.151964-2.97567.975908-5.878279 2.41-8.49 1.403378-2.537033 3.52102-4.605994 6.09-5.95 2.978275-1.470932 6.33044-2.011042 9.62-1.55 1.983941.162119 3.911966.737801 5.66 1.69 1.687563.941672 3.255527 2.083231 4.67 3.4 1.413333 1.333333 2.83 2.75 4.25 4.25 4.000144 4.281619 9.009334 7.492727 14.57 9.34 3.696872 1.157237 7.483106 2.006799 11.32 2.54 2.293667.112509 4.552276-.596631 6.37-2 1.532006-1.222497 2.660904-2.877518 3.24-4.75.566743-1.974451.709869-4.046376.42-6.08-.176658-1.916979-.914002-3.739472-2.12-5.24-3.206114-3.204168-7.298778-5.374151-11.75-6.23-4.357318-.871175-8.658391-2.003213-12.88-3.39-5.760313-1.931414-11.346901-4.346694-16.7-7.22-5.367904-2.823664-9.941018-6.949782-13.3-12-3.477525-5.00321-5.665638-10.787797-6.37-16.8400001-.670193-5.8403464-.187744-11.7554474 1.42-17.41 1.609193-5.6793818 4.354639-10.9729559 8.07-15.56 3.746792-4.6987374 8.355911-8.6392285 13.58-11.61 4.014748-2.2766884 8.426933-3.7666493 13-4.39 4.7342-.6555068 9.525473-.7963279 14.29-.42 4.849158.3826263 9.643265 1.2844546 14.3 2.69 4.418053 1.3099013 8.758341 2.8690665 13 4.67 4.2159 1.8087883 7.773417 4.870557 10.19 8.77 2.161797 3.4321383 3.290042 7.4139752 3.25 11.47-.057879 3.7118795-1.481995 7.2721711-4 10-2.546667 2.8333333-6.273333 4.25-11.18 4.25-2.81395.0399444-5.606814-.4907338-8.21-1.56-2.446667-1.0333333-4.993333-2.0333333-7.64-3-3.540405-1.3510326-7.235659-2.2546901-11-2.69-3.96-.4666667-7.166667-.23-9.62.71-1.007507.3586905-1.892012.9969214-2.55 1.84-.981488 1.1001625-1.70568 2.4050743-2.12 3.82-.473513 1.4620762-.573214 3.0194799-.29 4.53.376774 1.6247545 1.484495 2.9835584 3 3.68 4.562923 2.4643237 9.408452 4.3649261 14.43 5.6600001 5.1 1.333333 10.1 2.843333 15 4.53 4.804906 1.651709 9.410157 3.835262 13.73 6.51 4.42651 2.828078 8.074168 6.71983 10.61 11.32 4.048554 6.816415 6.244507 14.572922 6.37 22.5.147386 7.574781-1.450521 15.081867-4.67 21.94-3.254877 6.849661-8.107716 12.81711-14.15 17.4-6.32043 4.846964-13.865435 7.838651-21.79 8.64-5.773649.56645-11.600319.229063-17.27-1-5.711306-1.247322-11.232526-3.244645-16.42-5.94-5.240859-2.713499-10.172871-5.98586-14.71-9.76-4.329692-3.579211-8.310789-7.560308-11.89-11.89z" fill="#ffadde"/></g><path d="m44.4974768 198.75c-4.6584878-.867215-8.9283572-3.171756-12.21-6.59-3.3710975-3.434176-5.2042953-8.089344-5.08-12.9v-115.57c-3.2552675.5565208-6.6026196.1246044-9.61-1.24-2.8833776-1.1936937-5.4283405-3.0792331-7.41-5.49-1.83463877-2.2868823-2.93293226-5.0761991-3.14999998-8-.23941675-3.1499206.79851422-6.2637135 2.88-8.64 2.35212148-3.0919736 5.23328588-5.7429157 8.50999998-7.83 3.283077-2.0998518 6.7792251-3.8462499 10.43-5.21 3.7174206-1.3916354 7.5222877-2.5374382 11.39-3.43 3.9266667-.92 7.7233334-1.7433333 11.39-2.47 10.1631989-1.644837 20.4873592-2.0611609 30.75-1.24 9.9806768.7628205 19.7884142 3.0318503 29.0900002 6.73 9.197664 3.6831279 17.707309 8.8930457 25.17 15.41 7.80703 6.8737543 14.114724 15.2817435 18.53 24.7 2.901041 5.9735545 5.02177 12.2954118 6.31 18.81 1.274746 6.4678921 2.010604 13.0304071 2.2 19.62.213332 8.434519-.797176 16.85542-3 25-4.361452 16.042411-13.331554 30.45368-25.8 41.45-6.302871 5.537027-13.351608 10.16213-20.94 13.74-6.879193 3.141485-14.1110661 5.444672-21.5400002 6.86-7.6 1.46-15.06 2.74-22.38 3.84-3.66.546667-7.5466666 1.143333-11.66 1.79-3.9483715.639808-7.9402096.974133-11.94 1zm29.65-145.77c-2.38 0-4.62.1-6.72.28s-4.35.46-6.73.82v110.08c.9246955.020168 1.8483451-.073876 2.75-.28.7190999-.183074 1.4579674-.277112 2.2-.28.6510781.013449 1.2998796-.081168 1.92-.28 2.56-.36 4.6666667-.633333 6.32-.82 1.64-.18 3.2-.41 4.66-.69s3-.59 4.53-1 3.34-.82 5.36-1.37c10.6133334-2.74 18.9833332-7.073333 25.1100002-13 6.126666-5.926667 10.746666-14.116667 13.86-24.57 2.000035-5.918401 2.93121-12.14542 2.75-18.39-.15879-6.0943618-1.317549-12.1212581-3.43-17.84-2.112246-5.6796359-5.22849-10.9332158-9.2-15.51-4.094737-4.7165356-9.146727-8.5072325-14.82-11.12-4.4899233-2.1175687-9.2520208-3.6017277-14.1500002-4.41-4.66-.7066667-9.4633333-1.2466667-14.41-1.62z" fill="#ffadde"/><path d="m72.1274768 19.77c3.42 0 6.84.1366667 10.26.41 9.9806768.7628205 19.7884142 3.0318503 29.0900002 6.73 9.194877 3.6709582 17.704351 8.8672477 25.17 15.37 7.80703 6.8737543 14.114724 15.2817435 18.53 24.7 2.901041 5.9735545 5.02177 12.2954118 6.31 18.81 1.274746 6.4678921 2.010604 13.0304071 2.2 19.62.213332 8.434519-.797176 16.85542-3 25-4.361452 16.042411-13.331554 30.45368-25.8 41.45-6.302871 5.537027-13.351608 10.16213-20.94 13.74-6.879193 3.141485-14.1110661 5.444672-21.5400002 6.86-7.6 1.46-15.06 2.743333-22.38 3.85-3.66.54-7.5466666 1.133333-11.66 1.78-3.9483715.639808-7.9402096.974133-11.94 1l-1.93-.27c-4.6584878-.867215-8.9283572-3.171756-12.21-6.59-3.3710975-3.434176-5.2042953-8.089344-5.08-12.9v-115.64c-3.2551366.5627613-6.6043303.1306073-9.61-1.24-2.8833776-1.1936937-5.4283405-3.0792331-7.41-5.49-1.83332304-2.2885273-2.93452235-5.0763737-3.15999998-8-.22986891-3.1504692.81086613-6.2618708 2.89-8.64 2.35212148-3.0919736 5.23328588-5.7429157 8.50999998-7.83 3.283077-2.0998518 6.7792251-3.8462499 10.43-5.21 3.7174206-1.3916354 7.5222877-2.5374382 11.39-3.43 3.9266667-.92 7.7233334-1.7433333 11.39-2.47 6.7750655-1.0955735 13.6269258-1.6473339 20.49-1.65m-11.43 144.43c.9246955.020168 1.8483451-.073876 2.75-.28.7190999-.183074 1.4579674-.277112 2.2-.28.6510781.013449 1.2998796-.081168 1.92-.28 2.56-.36 4.6666667-.633333 6.32-.82 1.64-.18 3.2-.41 4.66-.69s3-.59 4.53-1 3.34-.82 5.36-1.37c10.6133334-2.74 18.9833332-7.073333 25.1100002-13 6.126666-5.926667 10.746666-14.116667 13.86-24.57 2.000035-5.918401 2.93121-12.14542 2.75-18.39-.163644-6.0938345-1.322252-12.1199479-3.43-17.84-2.112246-5.6796359-5.22849-10.9332158-9.2-15.51-4.094737-4.7165356-9.146727-8.5072325-14.82-11.12-4.4899233-2.1175687-9.2520208-3.6017277-14.1500002-4.41-4.6666666-.7266667-9.47-1.2766667-14.41-1.65-2.38 0-4.62.1-6.72.28s-4.35.46-6.73.82zm11.43-151.39c-7.234891.0027983-14.4579529.5846561-21.6 1.74h-.13-.13c-3.72.75-7.62 1.59-11.6 2.52-4.1646748.9664433-8.2630852 2.1989726-12.27 3.69-4.1096546 1.5479648-8.047442 3.5185342-11.75 5.88-3.9445837 2.5158097-7.41722002 5.7041365-10.25999998 9.42-3.16034818 3.7880769-4.71431037 8.6617043-4.33 13.58.35053083 4.279511 1.97737305 8.3553256 4.67 11.7 2.68557455 3.2898231 6.13612238 5.8717256 10.04999998 7.52 1.7386905.7687727 3.5609506 1.3325659 5.43 1.68v108.76c-.1361906 6.635424 2.4090637 13.045427 7.06 17.78 4.2849466 4.437326 9.8459925 7.429316 15.91 8.56h.17.17l1.92.27.49.07h.5c4.3524683-.001997 8.6984319-.336302 13-1 3.78-.59 7.58-1.18 11.63-1.78 7.37-1.11 15-2.42 22.66-3.89 7.9809222-1.524928 15.7498632-4.002663 23.1400002-7.38 8.148954-3.862554 15.718696-8.843976 22.49-14.8 13.491301-11.898878 23.19826-27.491899 27.92-44.85 2.379319-8.796585 3.480602-17.889747 3.27-27-.199712-6.9957909-.979047-13.9629845-2.33-20.83-1.407029-7.1026931-3.719226-13.9955937-6.88-20.51-4.836861-10.2675299-11.725009-19.4358461-20.24-26.94-8.047045-6.9971806-17.206429-12.6009657-27.1-16.58-9.960186-3.9497847-20.4574147-6.3802606-31.1400002-7.21-3.59-.28-7.23-.43-10.82-.43zm-4.43 47.49h.34c1.83-.16 3.81-.24 5.85-.24 4.63.35 9.2.87 13.59 1.56 4.2526751.7080561 8.3879718 1.9967612 12.29 3.83 4.7624672 2.1956306 9.0056522 5.3754634 12.4500002 9.33 3.424292 3.9501702 6.113414 8.4817136 7.94 13.38 1.840358 5.0060893 2.853606 10.2783571 3 15.61.153301 5.432555-.655837 10.849385-2.39 16v.11.1c-2.76 9.23-6.8 16.48-12 21.55s-12.6200002 8.86-22.0000002 11.28c-2 .54-3.68 1-5.12 1.31s-2.82.63-4.22.89-2.72.46-4.13.61-3.29.4-5.42.7v-96z" fill="#000"/><path d="m164.097477 122.71c1.303307-5.369898 3.097524-10.60861 5.36-15.65 2.299337-5.157243 5.102975-10.0744971 8.37-14.68 3.254598-4.6331962 6.981224-8.9161354 11.12-12.78 3.963161-3.7360316 8.446325-6.8786251 13.31-9.33 7.813322-4.2086801 16.516983-6.4951479 25.39-6.67 8.192275-.178255 16.315548 1.5326282 23.74 5 7.407947 3.5500158 13.822009 8.878463 18.67 15.51 5.291897 7.265771 8.774892 15.6887229 10.16 24.57.878138 5.862013 1.38249 11.77395 1.51 17.7.061145 5.858848-.539324 11.705872-1.79 17.43-2.071248 9.174259-5.839302 17.880466-11.11 25.67-5.348229 8.263139-12.119789 15.512094-20 21.41-7.548051 5.663356-16.273458 9.556125-25.53 11.39-9.24 1.833333-18.526667.37-27.86-4.39-4.045138-1.908338-7.868121-4.255784-11.4-7-3.467242-2.737922-6.557342-5.922171-9.19-9.47-3.014614-3.842597-5.465949-8.095392-7.28-12.63-1.758953-4.460203-3.179634-9.046496-4.25-13.72-1.285904-5.049523-1.76183-10.271207-1.41-15.47.346453-5.109378.987519-10.194501 1.92-15.23zm32.94 5.76c-.55 2.93-1 5.81-1.37 8.65-.370029 2.871462-.370029 5.778538 0 8.65.488573 4.008506 1.64809 7.906242 3.43 11.53 1.57034 3.268772 3.92748 6.096653 6.86 8.23 2.851912 2.022555 6.253871 3.125139 9.75 3.16 3.66.093333 7.593333-1.05 11.8-3.43 5.333333-3.113333 9.91-7.92 13.73-14.42 3.742335-6.211213 6.172306-13.123359 7.14-20.31.935884-6.745962.179875-13.618771-2.2-20-2.38-6.313333-7.046667-10.8433333-14-13.59-4.348124-.042382-8.654835.8476034-12.63 2.61-3.721713 1.66579-7.11001 3.99355-10 6.87-2.937196 2.960373-5.432805 6.328266-7.41 10-2.104891 3.833007-3.813717 7.870528-5.1 12.05z" fill="#adbffd"/><path d="m228.287477 63.6c7.983996-.064891 15.879846 1.6715124 23.1 5.08 7.407947 3.5500158 13.822009 8.878463 18.67 15.51 5.290209 7.2667171 8.773029 15.6892456 10.16 24.57.878138 5.862013 1.38249 11.77395 1.51 17.7.061145 5.858848-.539324 11.705872-1.79 17.43-2.071248 9.174259-5.839302 17.880466-11.11 25.67-5.348229 8.263139-12.119789 15.512094-20 21.41-7.548051 5.663356-16.273458 9.556125-25.53 11.39-2.538897.505301-5.121308.76-7.71.76-7.031704-.081792-13.941381-1.847789-20.15-5.15-4.045138-1.908338-7.868121-4.255784-11.4-7-3.467242-2.737922-6.557342-5.922171-9.19-9.47-3.014614-3.842597-5.465949-8.095392-7.28-12.63-1.758953-4.460203-3.179634-9.046496-4.25-13.72-1.294384-5.075294-1.770371-10.324661-1.41-15.55.346453-5.109378.987519-10.194501 1.92-15.23l.27-1.65c1.303307-5.369898 3.097524-10.60861 5.36-15.65 2.299337-5.157243 5.102975-10.0744971 8.37-14.68 3.254045-4.6366825 6.980689-8.9229936 11.12-12.79 3.963161-3.7360316 8.446325-6.8786251 13.31-9.33 7.813322-4.2086801 16.516983-6.4951479 25.39-6.67zm-12.16 105.09c4.026142-.139867 7.947159-1.321685 11.38-3.43 5.333333-3.113333 9.91-7.92 13.73-14.42 3.742335-6.211213 6.172306-13.123359 7.14-20.31.935884-6.745962.179875-13.618771-2.2-20-2.38-6.313333-7.046667-10.8433333-14-13.59-4.348124-.042382-8.654835.8476034-12.63 2.61-3.721713 1.66579-7.11001 3.99355-10 6.87-2.937196 2.960373-5.432805 6.328266-7.41 10-2.099873 3.843365-3.802025 7.891002-5.08 12.08-.55 2.93-1 5.81-1.37 8.65-.370029 2.871462-.370029 5.778538 0 8.65.488573 4.008506 1.64809 7.906242 3.43 11.53 1.57034 3.268772 3.92748 6.096653 6.86 8.23 2.851912 2.022555 6.253871 3.125139 9.75 3.16h.42m12.14-112.12h-.71c-9.961606.2092426-19.731853 2.7760314-28.51 7.49-5.439103 2.7557746-10.456486 6.2746773-14.9 10.45-4.482901 4.1922478-8.524043 8.8331934-12.06 13.85-3.505194 4.9871133-6.519258 10.3019125-9 15.87-2.431639 5.431995-4.359721 11.075654-5.76 16.86l-.06.24v.25l-.27 1.58c-.966165 5.291611-1.633887 10.633383-2 16-.408391 5.924871.114626 11.877138 1.55 17.64 1.155714 4.992617 2.679889 9.892707 4.56 14.66 2.047663 5.127354 4.811828 9.93855 8.21 14.29 2.960992 3.984426 6.426606 7.56769 10.31 10.66 3.913141 3.031026 8.140758 5.632637 12.61 7.76 7.174695 3.773121 15.144107 5.785183 23.25 5.87 3.044994-.002783 6.082543-.300845 9.07-.89 10.274907-2.030166 19.967177-6.327972 28.37-12.58 8.55046-6.406738 15.897466-14.27853 21.7-23.25 5.740458-8.518528 9.846917-18.030188 12.11-28.05 1.353639-6.241098 2.004357-12.614117 1.94-19-.128138-6.23113-.659247-12.447444-1.59-18.61v-.18c-1.582695-9.9648243-5.510582-19.4109468-11.46-27.56-5.533417-7.5378571-12.83868-13.5963826-21.27-17.64-8.161854-3.8256677-17.07628-5.7766592-26.09-5.71zm-24.44 73.6c1.120074-3.601645 2.59742-7.082287 4.41-10.39 1.661168-3.094969 3.755626-5.936966 6.22-8.44 2.316963-2.278151 5.02737-4.11784 8-5.43 2.644535-1.202971 5.497102-1.882153 8.4-2 4.060578 1.637411 7.248897 4.901901 8.79 9 1.985954 5.318387 2.604873 11.050264 1.8 16.67-.849789 6.245512-2.966387 12.251615-6.22 17.65-3.2 5.41-7 9.42-11.19 11.91-2.377289 1.484939-5.091342 2.344905-7.89 2.5h-.24c-2.100354-.00821-4.148201-.657102-5.87-1.86-1.99949-1.467532-3.598396-3.413728-4.65-5.66-1.436721-2.926153-2.369799-6.0736-2.76-9.31-.289968-2.270781-.289968-4.569219 0-6.84.33-2.56.75-5.21 1.24-7.87z" fill="#000"/><path d="m285.347477 122.71c1.299859-5.369627 3.090732-10.60835 5.35-15.65 2.307034-5.153341 5.110254-10.0698604 8.37-14.68 3.25753-4.6308996 6.983904-8.9135486 11.12-12.78 3.964933-3.7338554 8.447766-6.8762167 13.31-9.33 7.814172-4.2065234 16.517303-6.4928519 25.39-6.67 8.198863-.1799001 16.329005 1.5309883 23.76 5 7.406369 3.5524763 13.81988 8.880465 18.67 15.51 5.288675 7.2665305 8.768248 15.6894983 10.15 24.57.888026 5.860848 1.392432 11.773424 1.51 17.7.064685 5.858481-.532432 11.70553-1.78 17.43-2.074985 9.174741-5.846397 17.88087-11.12 25.67-5.342515 8.267598-12.114952 15.517491-20 21.41-7.548051 5.663356-16.273458 9.556125-25.53 11.39-9.266667 1.853333-18.566667.4-27.9-4.36-4.041665-1.908981-7.861265-4.256409-11.39-7-3.470376-2.737686-6.563813-5.921909-9.2-9.47-3.00806-3.845256-5.455751-8.097571-7.27-12.63-1.76228-4.459952-3.186304-9.046245-4.26-13.72-1.278999-5.060803-1.74482-10.292844-1.38-15.5.351392-5.108898.992423-10.193739 1.92-15.23zm32.94 5.76c-.546667 2.926667-1.006667 5.81-1.38 8.65-.360053 2.872093-.360053 5.777907 0 8.65.491723 4.0091 1.654629 7.906863 3.44 11.53 1.563915 3.272898 3.922264 6.10223 6.86 8.23 2.847666 2.023507 6.246771 3.126296 9.74 3.16 3.66.093333 7.596666-1.05 11.81-3.43 5.3-3.113333 9.873333-7.92 13.72-14.42 3.757251-6.206789 6.197811-13.120005 7.17-20.31.935884-6.745962.179875-13.618771-2.2-20-2.38-6.313333-7.046667-10.8433333-14-13.59-4.34488-.0421918-8.648291.8478163-12.62 2.61-3.724566 1.660702-7.113736 3.989062-10 6.87-2.937196 2.960373-5.432805 6.328266-7.41 10-2.119335 3.829809-3.838413 7.867798-5.13 12.05z" fill="#92ebeb"/><path d="m349.537477 63.6c7.980973-.0890059 15.879588 1.6199115 23.11 5 7.406369 3.5524763 13.81988 8.880465 18.67 15.51 5.286986 7.2674761 8.766384 15.6900204 10.15 24.57.888026 5.860848 1.392432 11.773424 1.51 17.7.064685 5.858481-.532432 11.70553-1.78 17.43-2.074985 9.174741-5.846397 17.88087-11.12 25.67-5.342515 8.267598-12.114952 15.517491-20 21.41-7.548051 5.663356-16.273458 9.556125-25.53 11.39-2.538754.506263-5.121261.760002-7.71.760002-7.042783-.066161-13.966777-1.822023-20.19-5.120002-4.041665-1.908981-7.861265-4.256409-11.39-7-3.470376-2.737686-6.563813-5.921909-9.2-9.47-3.00806-3.845256-5.455751-8.097571-7.27-12.63-1.76228-4.459952-3.186304-9.046245-4.26-13.72-1.278999-5.060803-1.74482-10.292844-1.38-15.5.351392-5.108898.992423-10.193739 1.92-15.23l.28-1.65c1.299859-5.369627 3.090732-10.60835 5.35-15.65 2.307034-5.153341 5.110254-10.0698604 8.37-14.68 3.256981-4.6343851 6.983372-8.9204055 11.12-12.79 3.964933-3.7338554 8.447766-6.8762167 13.31-9.33 7.814172-4.2065234 16.517303-6.4928519 25.39-6.67zm-12.17 105.09c4.029335-.139513 7.953671-1.321292 11.39-3.43 5.3-3.113333 9.873333-7.92 13.72-14.42 3.757251-6.206789 6.197811-13.120005 7.17-20.31.935884-6.745962.179875-13.618771-2.2-20-2.38-6.313333-7.046667-10.8433333-14-13.59-4.34488-.0421918-8.648291.8478163-12.62 2.61-3.724566 1.660702-7.113736 3.989062-10 6.87-2.937196 2.960373-5.432805 6.328266-7.41 10-2.103997 3.841377-3.806331 7.889446-5.08 12.08-.546667 2.926667-1.006667 5.81-1.38 8.65-.360053 2.872093-.360053 5.777907 0 8.65.491723 4.0091 1.654629 7.906863 3.44 11.53 1.563915 3.272898 3.922264 6.10223 6.86 8.23 2.847666 2.023507 6.246771 3.126296 9.74 3.16h.42m12.12-112.12h-.72c-9.958528.2085426-19.72569 2.7754215-28.5 7.49-5.442623 2.7549593-10.463419 6.2738942-14.91 10.45-4.480182 4.1948713-8.52107 8.835526-12.06 13.85-3.507483 4.985664-6.521677 10.3006916-9 15.87-2.439284 5.429985-4.370853 11.074049-5.77 16.86l-.06.24v.25l-.26 1.58c-.971089 5.290853-1.638845 10.632905-2 16-.418422 5.924961.104733 11.878799 1.55 17.64 1.147757 4.993619 2.668695 9.89405 4.55 14.66 2.05165 5.125424 4.815503 9.936078 8.21 14.29 3.000827 4.022695 6.513828 7.636547 10.45 10.75 3.913141 3.031026 8.140758 5.632637 12.61 7.76 7.175108 3.772041 15.144256 5.784037 23.25 5.87 3.044994-.002783 6.082543-.300845 9.07-.89 10.240601-2.073397 19.890881-6.401505 28.25-12.67 8.551369-6.392095 15.904649-14.246427 21.72-23.2 5.744566-8.516282 9.85137-18.028738 12.11-28.05 1.358396-6.240341 2.009169-12.613897 1.94-19-.129597-6.230662-.657339-12.446669-1.58-18.61v-.09-.09c-1.580791-9.9619213-5.501384-19.4069875-11.44-27.56-5.538153-7.5576816-12.853979-13.6335956-21.3-17.69-8.160466-3.845657-17.078948-5.8138737-26.1-5.7610768zm-24.44 73.6c1.120904-3.59979 2.59473-7.080028 4.4-10.39 1.668029-3.093199 3.765501-5.934718 6.23-8.44 2.316963-2.278151 5.02737-4.11784 8-5.43 2.64103-1.202917 5.490318-1.882128 8.39-2 4.060578 1.637411 7.248897 4.901901 8.79 9 1.968671 5.319373 2.567046 11.048637 1.74 16.66-.854441 6.244387-2.970717 12.249574-6.22 17.65-3.2 5.41-7 9.42-11.2 11.91-2.376738 1.48613-5.091106 2.346195-7.89 2.5h-.24c-2.097239-.008335-4.141857-.65731-5.86-1.86-1.999914-1.469715-3.601603-3.415114-4.66-5.66-1.43326-2.926774-2.36295-6.074195-2.75-9.31-.289968-2.270781-.289968-4.569219 0-6.84.33-2.56.74-5.21 1.24-7.87z" fill="#000"/><path d="m533.407477 166.35c3.106666 5.333333 4.16 10.093333 3.16 14.28-.761534 3.835574-2.97573 7.228525-6.18 9.47-3.374671 2.17069-7.416446 3.057822-11.39 2.5-4.493334-.46-8.826667-2.793333-13-7-4.230113 3.021991-8.84405 5.466839-13.72 7.27-4.944113 1.792842-9.985461 3.305246-15.1 4.53-7.828044 1.836163-15.989998 1.695262-23.75-.41-14.94362-4.007669-27.472679-14.190939-34.45-28-3.661146-7.105815-5.709816-14.931734-6-22.92-.572949-8.836625.12074-17.709776 2.06-26.35 1.807343-8.131174 4.913873-15.91776 9.2-23.06 4.265154-7.0148746 9.917165-13.0854265 16.61-17.84 7.284772-5.1252727 15.557044-8.6773433 24.29-10.43 5.434674-1.1017116 10.964803-1.6644382 16.51-1.68 5.561555.0002974 11.113645.458512 16.6 1.37-.18-4-.32-8.65-.41-13.86s-.13-10.29-.13-15.24.18-9.37.54-13.31c.183968-2.8299855.65301-5.6341877 1.4-8.37 1.108809-3.0827756 3.176654-5.7289156 5.9-7.55 2.477677-1.68187824 5.377627-2.63466926 8.37-2.75 3.029127-.06150657 6.018336.69875463 8.65 2.2 2.887199 1.6119445 5.227193 4.0494384 6.72 7 .367731.9157402.830248 1.7905005 1.38 2.61.527195.7689058.812731 1.6777455.82 2.61.18 24 .226666 47.6966667.14 71.09-.086667 23.393333-.133334 47.093333-.14 71.1.73 1.1 1.37 1.99 1.92 2.74zm-38.16-15.09c.552261-.699493 1.256796-1.263805 2.06-1.65.891881-.372937 1.482659-1.233674 1.51-2.2v-22.64c0-7.413333-.09-14.963333-.27-22.65-4.523618-.925937-9.115802-1.477802-13.73-1.65-4.661785-.189825-9.327168.274694-13.86 1.38-4.402314 1.068333-8.573555 2.928618-12.31 5.49-3.929233 2.775639-7.015947 6.582125-8.92 11-1.1 3.466667-2.1 6.943333-3 10.43-.894021 3.313583-1.400739 6.719669-1.51 10.15-.09575 3.294007.319166 6.582977 1.23 9.75.977934 3.324588 2.561122 6.440113 4.67 9.19.807763.804141 1.680748 1.53999 2.61 2.2 1 .73 3 2 5.9 3.84 6.513314.575692 13.076822-.07557 19.35-1.92 6.320234-1.979149 11.957604-5.693507 16.27-10.72z" fill="#95f1c5"/><path d="m514.397477 7c2.866062.02696494 5.677937.78414058 8.17 2.2 2.887199 1.6119445 5.227193 4.0494384 6.72 7 .367731.9157402.830248 1.7905005 1.38 2.61.527195.7689058.812731 1.6777455.82 2.61.18 24 .226666 47.6966667.14 71.09-.086667 23.393333-.133334 47.093333-.14 71.1.73 1.1 1.37 2 1.92 2.74 3.106666 5.333333 4.16 10.093333 3.16 14.28-.761534 3.835574-2.97573 7.228525-6.18 9.47-2.689094 1.766706-5.853476 2.670317-9.07 2.59-.75 0-1.52 0-2.32-.12-4.493334-.46-8.826667-2.793333-13-7-4.230113 3.021991-8.84405 5.466839-13.72 7.27-4.944113 1.792842-9.985461 3.305246-15.1 4.53-3.705281.837776-7.49121 1.267005-11.29 1.280047-4.210868.005968-8.402867-.56261-12.46-1.690047-14.94362-4.007669-27.472679-14.190939-34.45-28-3.661146-7.105815-5.709816-14.931734-6-22.92-.572949-8.836625.12074-17.709776 2.06-26.35 1.807343-8.131174 4.913873-15.91776 9.2-23.06 4.265154-7.0148746 9.917165-13.0854265 16.61-17.84 7.284772-5.1252727 15.557044-8.6773433 24.29-10.43 5.435676-1.0916374 10.965795-1.6443144 16.51-1.65 5.561555.0002974 11.113645.458512 16.6 1.37-.18-4-.32-8.65-.41-13.86s-.13-10.29-.13-15.24.18-9.37.54-13.31c.183968-2.8299855.65301-5.6341877 1.4-8.37 1.108809-3.0827756 3.176654-5.7289156 5.9-7.55 2.476832-1.68224101 5.377852-2.63191795 8.37-2.74h.48m-50.19 157.06c4.979953.01721 9.935678-.693638 14.71-2.11 6.339612-1.963503 11.99867-5.67152 16.33-10.7.552261-.699493 1.256796-1.263805 2.06-1.65.891881-.372937 1.482659-1.233674 1.51-2.2v-22.64c0-7.413333-.09-14.963333-.27-22.65-4.523618-.925937-9.115802-1.477802-13.73-1.650111-.67 0-1.34 0-2 0-3.992941-.008381-7.972115.468448-11.85 1.420111-4.403053 1.054919-8.57761 2.901619-12.32 5.45-3.929233 2.775639-7.015947 6.582125-8.92 11-1.1 3.466667-2.1 6.943333-3 10.43-.894021 3.313583-1.400739 6.719669-1.51 10.15-.09575 3.294007.319166 6.582977 1.23 9.75.977934 3.324588 2.561122 6.440113 4.67 9.19.807763.804141 1.680748 1.53999 2.61 2.2 1 .73 3 2 5.9 3.84 1.56.13 3.11.19 4.64.19m50.13-164.09h-.7c-4.283383.14998146-8.439648 1.4938406-12 3.88-3.945035 2.62356244-6.953377 6.4338952-8.59 10.88l-.06.15v.16c-.924893 3.2424046-1.498194 6.5749215-1.71 9.94-.38 4.11-.57 8.8-.57 14s0 10.29.13 15.37c0 2 .08 3.92.13 5.76-3.1-.27-6.22-.4-9.32-.4-6.043903.0006416-12.073034.5968557-18 1.78h-.11c-9.670386 1.971145-18.828763 5.9204823-26.9 11.6-7.457619 5.3072238-13.755713 12.0782707-18.51 19.9-4.65829 7.783171-8.034722 16.26477-10 25.12-2.080724 9.273209-2.83158 18.79528-2.23 28.28.359513 8.988853 2.687623 17.789244 6.82 25.78 7.873026 15.533745 21.97399 26.991914 38.79 31.52 4.668353 1.284903 9.488049 1.937395 14.33 1.94 4.306163-.016102 8.597896-.498922 12.8-1.44h.07.06c5.358746-1.303632 10.640337-2.906138 15.82-4.8 3.7335-1.368116 7.329462-3.085741 10.74-5.13 3.752093 2.885466 8.217984 4.69671 12.92 5.24.996512.105781 1.997889.159188 3 .16 4.617576.085486 9.151813-1.236419 13-3.79 4.666357-3.209684 7.915107-8.095346 9.07-13.64 1.43-6 .11-12.55-3.93-19.44l-.2-.35-.25-.33c-.16-.21-.33-.44-.51-.7 0-23.79 0-47 .14-68.9.09-23.22 0-47.16-.14-71.15-.016855-2.3031631-.712536-4.5502143-2-6.46-.276521-.4105347-.507864-.8497515-.69-1.31l-.14-.36-.18-.34c-2.133032-4.15660096-5.45371-7.58518362-9.54-9.85-3.524435-1.9845262-7.495357-3.04091533-11.54-3.07zm-58.18 120.87c1.380862-3.107392 3.570346-5.787265 6.34-7.76 3.067299-2.082174 6.485522-3.593103 10.09-4.46 3.335004-.816304 6.756551-1.22595 10.19-1.220064h1.75c2.41.090064 4.79.290064 7.11.590064.1 5.71.15 11.31.15 16.71v20.08c-.749956.577822-1.422178 1.250044-2 2-3.430644 3.95475-7.898925 6.871256-12.9 8.42-4.125743 1.220949-8.407411 1.83406-12.71 1.820236-.8 0-1.61 0-2.42-.060236-2.4-1.51-3.49-2.26-4-2.62-.506728-.360082-.990965-.750811-1.45-1.17-1.439601-1.962876-2.532087-4.157994-3.23-6.49-.725113-2.476482-1.062442-5.050299-1-7.63.091643-2.89675.521218-5.772892 1.28-8.57.84-3.19 1.77-6.44 2.78-9.66z" fill="#000"/><path d="m588.777477 171.3c2.12347 1.986428 3.844776 4.362985 5.07 7 1.32886 2.64843 2.078808 5.549365 2.2 8.51.108612 2.792564-.555792 5.560912-1.92 8-1.373334 2.466667-3.8 4.34-7.28 5.62-2.924502.930331-6.034359 1.119327-9.05.55-3.400675-.585493-6.689842-1.695376-9.75-3.29-3.089729-1.573942-5.952349-3.558603-8.51-5.9-2.322516-2.087574-4.150215-4.666849-5.35-7.55-.393465-1.019143-.671857-2.079048-.83-3.16-.16811-1.045196-.258358-2.101435-.27-3.16v-152.39c-.042908-4.0972348 1.711278-8.0076084 4.8-10.7 2.902875-2.7871064 6.593305-4.6131182 10.57-5.23 2.003612-.15528007 4.016994.12795852 5.9.83 2.120873.7384445 4.114523 1.8010496 5.91 3.15 1.775398 1.3308683 3.307874 2.9580668 4.53 4.81 1.1447 1.7042103 1.763648 3.7070989 1.78 5.76v18.95c0 7.8733333.046666 16.4766667.14 25.81.093333 9.3333333.136666 19 .13 29 0 10-.043334 19.56-.13 28.68-.086667 9.12-.133334 17.493333-.14 25.12 0 7.593333-.09 13.676667-.27 18.25z" fill="#ffe375"/><path d="m569.567477 9.6c1.634936.02040917 3.25457.31796186 4.79.88 2.120873.7384445 4.114523 1.8010496 5.91 3.15 1.775398 1.3308683 3.307874 2.9580668 4.53 4.81 1.1447 1.7042103 1.763648 3.7070989 1.78 5.76v18.9c0 7.8733333.046666 16.4766667.14 25.81.093333 9.3333333.136666 19 .13 29 0 10-.043334 19.56-.13 28.68-.086667 9.12-.133334 17.493333-.14 25.12 0 7.593333-.09 13.676667-.27 18.25l2.47 1.38c2.124789 1.985264 3.846293 4.362095 5.07 7 1.329795 2.644516 2.079836 5.542403 2.2 8.5.108612 2.792564-.555792 5.560912-1.92 8-1.373334 2.466667-3.8 4.34-7.28 5.62-1.765004.579861-3.612213.870281-5.47.860264-1.199935-.002573-2.397529-.106275-3.58-.310264-3.400675-.585493-6.689842-1.695376-9.75-3.29-3.089729-1.573942-5.952349-3.558603-8.51-5.9-2.322516-2.087574-4.150215-4.666849-5.35-7.55-.393465-1.019143-.671857-2.079048-.83-3.16-.16811-1.045196-.258358-2.101435-.27-3.16v-152.42c-.042908-4.0972348 1.711278-8.0076084 4.8-10.7 2.902875-2.7871064 6.593305-4.6131182 10.57-5.23zm0-7c-.597809-.00045404-1.195252.02958498-1.79.09h-.13-.15c-5.369747.81799252-10.360184 3.26086344-14.3 7-4.53425 4.0243454-7.11427 9.8075251-7.080337 15.87v152.32c.01132 1.417162.131678 2.831363.360337 4.23.230863 1.613517.650402 3.194342 1.25 4.71 1.58508 3.836708 4.003438 7.272963 7.08 10.06 3.023761 2.779115 6.411479 5.134033 10.07 7 3.698881 1.936453 7.676406 3.28591 11.79 4 1.566885.258878 3.15189.392633 4.74.400191 2.612326.010175 5.209153-.401805 7.69-1.220191h.1.11c5.08-1.87 8.77-4.83 11-8.79 1.971034-3.563279 2.919251-7.601856 2.74-11.67-.158817-3.937445-1.143433-7.79755-2.89-11.33-1.620097-3.441233-3.884205-6.540379-6.67-9.13h-.06c.1-4 .15-8.86.15-14.4 0-7.81.05-16.24.14-25.05.09-9.28.13-19 .13-28.75s0-19.56-.13-29c-.09-9-.14-17.65-.14-25.74v-19.04c-.019127-3.4048781-1.037965-6.7291409-2.93-9.56-1.663492-2.5438276-3.762253-4.77460683-6.2-6.59-2.369691-1.78346562-5.000732-3.19006066-7.8-4.17-2.278415-.81956626-4.678757-1.2489232-7.1-1.27z" fill="#000"/><path d="m698.767477 151.53c3.806457-1.09644 7.838335-1.144809 11.67-.14 3.080185.819494 5.819259 2.598841 7.82 5.08 1.872462 2.528421 2.751411 5.656338 2.47 8.79-.18 3.466667-1.733334 7.133333-4.66 11-2.671504 3.358284-6.047617 6.089215-9.89 8-3.804775 2.01436-7.748067 3.755423-11.8 5.21-8.267371 3.109261-16.817653 5.406752-25.53 6.86-7.495634 1.281349-15.154366 1.281349-22.65 0-7.061539-1.297306-13.784857-4.019297-19.76-8-6.70268-4.580259-12.517155-10.34052-17.16-17-3.725119-5.076973-6.468863-10.805258-8.09-16.89-1.74803-6.30818-2.718558-12.806351-2.89-19.35-.184375-6.538035.369122-13.076011 1.65-19.49 1.138409-5.960516 2.981339-11.764572 5.49-17.29 3.106666-6.4133333 8.046666-12.27 14.82-17.57 6.817607-5.3298963 14.408208-9.588861 22.51-12.63 8.092866-3.0782138 16.614089-4.8829859 25.26-5.35 8.6-.46 16.193333.8733333 22.78 4 5.503591 2.5734848 10.341612 6.3782085 14.14 11.12 3.800954 4.5952802 6.564011 9.9576577 8.1 15.72 1.460097 5.6115733 1.600431 11.485098.41 17.16-1.331095 6.049897-4.436883 11.565106-8.92 15.84-4.427554 4.465746-9.521543 8.217082-15.1 11.12-5.496491 2.84338-11.175639 5.31882-17 7.41-5.895368 2.118123-11.904787 3.904256-18 5.35-6.126667 1.473333-12.03 3.12-17.71 4.94 3.398226 4.114996 8.012001 7.048489 13.18 8.38 5.081493 1.198151 10.343146 1.428836 15.51.68 5.617508-.791801 11.107373-2.314709 16.33-4.53 5.281905-2.180105 10.416119-4.702116 15.37-7.55zm-55.45-47.21c-3.874465 2.054123-7.103951 5.141692-9.33 8.92-2 3.573333-3.463334 8.573333-4.39 15 4.753333-1.46 10.106666-3.016667 16.06-4.67 5.953333-1.653333 11.58-3.39 16.88-5.21 4.675151-1.538845 9.181673-3.54919 13.45-6 3.66-2.2 5.490023-4.58 5.490023-7.14.002693-1.444769-.230369-2.880299-.690023-4.25-.447287-1.3655962-1.515963-2.4379821-2.88-2.89-5.10526-1.8202377-10.61291-2.2007914-15.92-1.1-4.782786.8414527-9.411436 2.3989447-13.73 4.62z" fill="#ffc48c"/><path d="m671.267477 62.6c6.734953-.1132894 13.410371 1.277138 19.54 4.07 5.503591 2.5734848 10.341612 6.3782085 14.14 11.12 3.812423 4.6216538 6.576066 10.0158754 8.1 15.81 1.460097 5.6115733 1.600431 11.485098.41 17.16-1.331095 6.049897-4.436883 11.565106-8.92 15.84-4.427554 4.465746-9.521543 8.217082-15.1 11.12-5.496491 2.84338-11.175639 5.31882-17 7.41-5.895368 2.118123-11.904787 3.904256-18 5.35-6.126667 1.473333-12.03 3.12-17.71 4.94 3.398226 4.114996 8.012001 7.048489 13.18 8.38 3.089305.735283 6.254401 1.104488 9.43 1.1 2.033813-.002901 4.065106-.143221 6.08-.42 5.617695-.790902 11.107676-2.313842 16.33-4.53 5.281905-2.180105 10.416119-4.702116 15.37-7.55l1.65-.82c2.110331-.548389 4.2797-.83719 6.46-.86 1.762303-.012538 3.517149.229974 5.21.72 3.080185.819494 5.819259 2.598841 7.82 5.08 1.872462 2.528421 2.751411 5.656338 2.47 8.79-.18 3.466667-1.733334 7.133333-4.66 11-2.671504 3.358284-6.047617 6.089215-9.89 8-3.804775 2.01436-7.748067 3.755423-11.8 5.21-8.268622 3.107693-16.818422 5.408403-25.53 6.87-3.869566.618744-7.781302.936364-11.7.950247-3.687594.010156-7.368792-.307766-11-.950247-7.06013-1.302145-13.782503-4.023753-19.76-8-6.70268-4.580259-12.517155-10.34052-17.16-17-3.725119-5.076973-6.468863-10.805258-8.09-16.89-1.74803-6.30818-2.718558-12.806351-2.89-19.35-.172451-6.559925.397843-13.118302 1.7-19.55 1.138409-5.960516 2.981339-11.764572 5.49-17.29 3.106666-6.4133333 8.046666-12.27 14.82-17.57 6.817607-5.3298963 14.408208-9.588861 22.51-12.63 8.092866-3.0782138 16.614089-4.8829859 25.26-5.35 1.1-.06 2.18-.09 3.24-.09m-41.62 65.53c4.753333-1.46 10.106666-3.016667 16.06-4.67 5.953333-1.653333 11.58-3.39 16.88-5.21 4.675151-1.538845 9.181673-3.54919 13.45-6 3.66-2.2 5.490013-4.58 5.490013-7.14.00201-1.447981-.23102-2.88669-.690013-4.26-.451362-1.3609181-1.519082-2.4286385-2.88-2.88-3.153988-1.1309032-6.479391-1.7093812-9.83-1.71-2.045109.0027959-4.084966.2071165-6.09.61-4.802131.8492158-9.448077 2.4203411-13.78 4.66l-4.94 2.75c-3.874465 2.054123-7.103951 5.141692-9.33 8.92-2 3.573333-3.463334 8.573333-4.39 15m41.67-72.67c-1.18 0-2.4 0-3.61.1-9.364066.5071347-18.593265 2.4602438-27.36 5.79-8.763395 3.3120746-16.973505 7.9346865-24.35 13.71-7.59 6-13.24 12.68-16.81 20v.05.06c-2.735557 6.03199-4.749493 12.365817-6 18.87-1.383825 6.930668-1.980938 13.995388-1.78 21.06.187631 7.101049 1.23869 14.15288 3.13 21 1.851359 6.902149 4.971147 13.399446 9.2 19.16 5.150573 7.342043 11.58769 13.691074 19 18.74 6.766625 4.47692 14.369173 7.538349 22.35 9 4.02664.719628 8.109568 1.077721 12.2 1.070122 4.286172 0 8.565807-.334631 12.8-1.000122 9.139875-1.532163 18.111186-3.939917 26.79-7.19 4.354349-1.56303 8.591753-3.434438 12.68-5.6 4.746816-2.369004 8.9151-5.752107 12.21-9.91 3.78-5 5.83-10 6.09-14.86.383662-4.801172-1.007586-9.576246-3.91-13.42-2.886873-3.666298-6.876826-6.306399-11.38-7.53-2.339527-.677353-4.764432-1.014145-7.2-1-2.753444.022757-5.493776.38209-8.16 1.07l-.74.19-.69.34-1.65.82-.18.1-.18.1c-4.699639 2.690817-9.566194 5.079003-14.57 7.15-4.663059 1.980772-9.564306 3.345591-14.58 4.06-1.703866.22865-3.420867.345566-5.14.35-1.52163.000653-3.041629-.099567-4.55-.3l1.28-.31c6.337423-1.511966 12.586867-3.371442 18.72-5.57 6.087265-2.213144 12.023267-4.822046 17.77-7.81 6.218461-3.237227 11.898917-7.416612 16.84-12.39 5.440808-5.226033 9.206726-11.950389 10.82-19.32 1.404295-6.720632 1.236599-13.6748673-.49-20.32-1.777456-6.7564989-4.998035-13.0475448-9.44-18.44-4.472067-5.5440937-10.153826-9.9909851-16.61-13-7.05672-3.2248314-14.742125-4.8404742-22.5-4.73zm-24.53 54.78 4.92-2.73c3.683565-1.880743 7.626891-3.201926 11.7-3.92 1.553697-.31498 3.134702-.47576 4.72-.48 2.144044 0 4.27659.313206 6.33.93.009827.156513.009827.313487 0 .47-.605592.628919-1.30363 1.161721-2.07 1.58-3.847447 2.219182-7.911967 4.038666-12.13 5.43-5.13 1.77-10.67 3.48-16.47 5.09l-4.38 1.22c.22-.47.44-.92.67-1.33 1.60206-2.65944 3.906549-4.825522 6.66-6.26z" fill="#000"/><path d="m728.867477 170.6c-1.102285-3.033306-1.585137-6.256848-1.42-9.48.151964-2.97567.975908-5.878279 2.41-8.49 1.403378-2.537033 3.52102-4.605994 6.09-5.95 2.978275-1.470932 6.33044-2.011042 9.62-1.55 1.983941.162119 3.911966.737801 5.66 1.69 1.687563.941672 3.255527 2.083231 4.67 3.4 1.413333 1.333333 2.83 2.75 4.25 4.25 4.000144 4.281619 9.009334 7.492727 14.57 9.34 3.696872 1.157237 7.483106 2.006799 11.32 2.54 2.293667.112509 4.552276-.596631 6.37-2 1.532006-1.222497 2.660904-2.877518 3.24-4.75.566743-1.974451.709869-4.046375.42-6.08-.176658-1.916979-.914002-3.739472-2.12-5.24-3.206114-3.204168-7.298778-5.374151-11.75-6.23-4.357318-.871175-8.658391-2.003213-12.88-3.39-5.760313-1.931414-11.346901-4.346693-16.7-7.22-5.367904-2.823664-9.941018-6.949782-13.3-12-3.477525-5.00321-5.665638-10.787797-6.37-16.84-.670193-5.8403464-.187744-11.7554474 1.42-17.41 1.609193-5.6793818 4.354639-10.9729559 8.07-15.56 3.746792-4.6987374 8.355911-8.6392285 13.58-11.61 4.014748-2.2766884 8.426933-3.7666493 13-4.39 4.7342-.6555068 9.525473-.796328 14.29-.42 4.849158.3826263 9.643265 1.2844546 14.3 2.69 4.418053 1.3099013 8.758341 2.8690665 13 4.67 4.2159 1.8087883 7.773417 4.870557 10.19 8.77 2.161797 3.4321382 3.290042 7.4139752 3.25 11.47-.057879 3.7118794-1.481995 7.2721711-4 10-2.546667 2.8333333-6.273334 4.25-11.18 4.25-2.81395.0399443-5.606814-.4907338-8.21-1.56-2.446667-1.0333333-4.993334-2.0333333-7.64-3-3.540405-1.3510327-7.235659-2.2546901-11-2.69-3.96-.4666667-7.166667-.23-9.62.71-1.007507.3586905-1.892012.9969213-2.55 1.84-.981488 1.1001625-1.70568 2.4050743-2.12 3.82-.473513 1.4620762-.573215 3.0194799-.29 4.53.376774 1.624754 1.484495 2.983558 3 3.68 4.562923 2.464324 9.408452 4.364926 14.43 5.66 5.1 1.333333 10.1 2.843333 15 4.53 4.804906 1.651709 9.410157 3.835262 13.73 6.51 4.42651 2.828078 8.074168 6.71983 10.61 11.32 4.048554 6.816415 6.244507 14.572922 6.37 22.5.147386 7.574781-1.450521 15.081867-4.67 21.94-3.254877 6.849661-8.107716 12.81711-14.15 17.4-6.32043 4.846965-13.865435 7.838651-21.79 8.64-5.773649.56645-11.600319.229063-17.27-1-5.711306-1.247322-11.232526-3.244645-16.42-5.94-5.240859-2.713498-10.172871-5.98586-14.71-9.76-4.329692-3.579211-8.310789-7.560308-11.89-11.89z" fill="#ffadde"/><path d="m778.127477 52.98c1.73 0 3.48.06 5.22.2 4.849158.3826263 9.643265 1.2844546 14.3 2.69 4.418053 1.3099013 8.758341 2.8690665 13 4.67 4.2159 1.8087883 7.773417 4.870557 10.19 8.77 2.161797 3.4321382 3.290042 7.4139752 3.25 11.47-.057879 3.7118794-1.481995 7.2721711-4 10-2.546667 2.8333333-6.273334 4.25-11.18 4.25-2.81395.0399443-5.606814-.4907338-8.21-1.56-2.446667-1.0333333-4.993334-2.0333333-7.64-3-3.538958-1.3556716-7.234803-2.2594737-11-2.69-1.231377-.1461627-2.469999-.2229506-3.71-.23-2.010933-.0510996-4.014155.2675177-5.91.94-1.007507.3586905-1.892012.9969213-2.55 1.84-.981488 1.1001625-1.70568 2.4050743-2.12 3.82-.473513 1.4620762-.573215 3.0194799-.29 4.53.376774 1.624754 1.484495 2.983558 3 3.68 4.562923 2.464324 9.408452 4.364926 14.43 5.66 5.1 1.333333 10.1 2.843333 15 4.53 4.804906 1.651709 9.410157 3.835262 13.73 6.51 4.42651 2.828078 8.074168 6.71983 10.61 11.32 4.048554 6.816415 6.244507 14.572922 6.37 22.5.147386 7.574781-1.450521 15.081867-4.67 21.94-3.254877 6.849661-8.107716 12.81711-14.15 17.4-6.32043 4.846965-13.865435 7.838651-21.79 8.64-1.85.17-3.69.260003-5.51.260003-3.953751 0-7.896253-.421189-11.76-1.260003-5.711306-1.247322-11.232526-3.244645-16.42-5.94-5.240859-2.713498-10.172871-5.98586-14.71-9.76-4.329692-3.579211-8.310789-7.560308-11.89-11.89l-.85-1.7c-1.106001-3.032361-1.588966-6.256663-1.42-9.48.151964-2.97567.975908-5.878279 2.41-8.49 1.403378-2.537033 3.52102-4.605994 6.09-5.95 2.260572-1.153985 4.772576-1.727863 7.31-1.67.771522.001365 1.54249.041416 2.31.12 1.983941.162119 3.911966.737801 5.66 1.69 1.687563.941672 3.255527 2.083231 4.67 3.4 1.413333 1.333333 2.83 2.75 4.25 4.25 4.000144 4.281619 9.009334 7.492727 14.57 9.34 3.696872 1.157237 7.483106 2.006799 11.32 2.54 2.293667.112509 4.552276-.596631 6.37-2 1.527084-1.214508 2.655542-2.858435 3.24-4.72.566743-1.974451.709869-4.046375.42-6.08-.176658-1.916979-.914002-3.739472-2.12-5.24-3.206114-3.204168-7.298778-5.374151-11.75-6.23-4.357318-.871175-8.658391-2.003213-12.88-3.39-5.760313-1.931414-11.346901-4.346693-16.7-7.22-5.367904-2.823664-9.941018-6.949782-13.3-12-3.477525-5.00321-5.665638-10.787797-6.37-16.84-.670193-5.8403464-.187744-11.7554474 1.42-17.41 1.611265-5.6785606 4.356504-10.9717354 8.07-15.56 3.746792-4.6987374 8.355911-8.6392285 13.58-11.61 4.014748-2.2766884 8.426933-3.7666493 13-4.39 3.005291-.4168056 6.035945-.6239727 9.07-.62m0-7c-3.345183.001265-6.686346.2318052-10 .69-5.459329.7444855-10.726684 2.5228964-15.52 5.24-5.986234 3.414442-11.272509 7.9305088-15.58 13.31-4.28937 5.3126501-7.465757 11.4341675-9.34 18-1.842083 6.5274049-2.395715 13.3510117-1.63 20.09.821249 7.184257 3.404426 14.054409 7.52 20 3.998767 5.997042 9.43359 10.899039 15.81 14.26 5.698231 3.062154 11.64628 5.634736 17.78 7.69 4.48719 1.475497 9.058704 2.680987 13.69 3.61 2.968414.547868 5.717229 1.936158 7.92 4 .223627.461481.362501.959395.41 1.47.164603 1.058071.099805 2.139165-.19 3.17-.172488.568296-.52306 1.066107-1 1.42-.450545.255531-.96221.383447-1.48.37-3.269224-.484698-6.495672-1.223605-9.65-2.21-2.895513-.940667-5.603314-2.382571-8-4.26-1.250145-.938484-2.411667-1.989545-3.47-3.14-1.53-1.62-3.06-3.15-4.58-4.57-1.816099-1.702232-3.830605-3.179537-6-4.4-2.592226-1.424845-5.453148-2.293339-8.4-2.55-1-.1-2-.15-3-.15-3.733944-.063525-7.423861.813389-10.73 2.55-3.753916 1.976056-6.847668 5.007237-8.9 8.72-1.942542 3.527191-3.060538 7.448723-3.27 11.47-.229898 4.156294.382352 8.31619 1.8 12.23l.14.41.2.39.85 1.7.35.7.49.6c3.855898 4.659176 8.148797 8.938681 12.82 12.78 4.932958 4.106202 10.297828 7.663781 16 10.61 5.730909 2.977077 11.830495 5.182881 18.14 6.56 4.353085.946375 8.79523 1.422439 13.25 1.420009 2 0 4.12-.100009 6.18-.300009h.12c9.18965-.929899 17.940997-4.391666 25.28-10 6.916597-5.280476 12.470905-12.137646 16.2-20 3.667645-7.81557 5.494451-16.36803 5.34-25-.142047-9.131698-2.66151-18.068726-7.31-25.93-3.123686-5.592194-7.591614-10.317887-13-13.75-4.762178-2.954809-9.840547-5.366531-15.14-7.19-5-1.75-10.28-3.32-15.53-4.69-4.258356-1.094828-8.375734-2.6786933-12.27-4.72.015059-.0952091.038483-.1889052.07-.28.114703-.441188.32653-.8511747.62-1.2l.08-.09c1.039114-.3002009 2.118962-.4351819 3.2-.4.965971.0050399 1.930869.0651374 2.89.18 3.193474.3591108 6.328496 1.1218654 9.33 2.27h.08.09c2.51.9 5 1.85 7.28 2.83 3.463577 1.433837 7.181597 2.151588 10.93 2.11 7 0 12.46-2.21 16.38-6.56 3.640592-3.9827285 5.690531-9.1645196 5.76-14.56.070533-5.3819835-1.404484-10.6712193-4.25-15.24-3.139927-5.1101283-7.771491-9.1343888-13.27-11.53h-.08-.09c-4.49073-1.9025551-9.084607-3.5518104-13.76-4.94-5.130108-1.5502112-10.409231-2.5557584-15.75-3-1.93-.15-3.87-.22-5.78-.22z" fill="#000"/></g></svg>