<svg width="128" height="21" viewBox="0 0 128 21" role="img" aria-label="Edge &amp; Node" xmlns="http://www.w3.org/2000/svg" class="css-1ri9715"><g><path d="m0 1.70399h10.096v2.8352h-7.1168v3.0016h5.8848v2.83521h-5.8848v3.0848h7.1168v2.8352h-10.096zm16.7488 4.096c.566-.01403 1.1276.10284 1.6411.34152.5134.23868.9648.5927 1.3189 1.03448v-6.294398h2.816v15.414408h-2.816v-1.152c-.3536.4423-.8049.7968-1.3185 1.0355-.5135.2387-1.0754.3553-1.6415.3405-2.7328 0-4.8288-2.4448-4.8288-5.3632 0-2.91841 2.096-5.35681 4.8288-5.35681zm.5952 2.56c-1.5424 0-2.5888 1.1904-2.5888 2.79361 0 1.6032 1.0464 2.7968 2.5888 2.7968s2.5888-1.1936 2.5888-2.7968c0-1.60321-1.0528-2.79361-2.5888-2.79361zm10.4384 8.56961c.352 1.0464 1.152 1.52 2.3232 1.52 1.232 0 2.3232-.8 2.3232-2.4256v-1.2096c-.5344.7616-1.664 1.3568-2.9792 1.3568-2.672 0-4.8512-2.3008-4.8512-5.1776 0-2.87681 2.1792-5.19361 4.8416-5.19361 1.3152 0 2.4448.5952 2.9792 1.376v-1.1552h2.816v9.63841c0 3.7184-2.528 5.12-5.2 5.12-2.8992 0-4.8-1.664-5.0144-3.8624zm2.2624-8.56961c-.5215-.00698-1.0334.14126-1.4705.42587-.4371.28462-.7797.69276-.9843 1.17256-.2046.47978-.2619 1.00958-.1647 1.52208.0972.5124.3446.9844.7107 1.3559s.8344.6258 1.3454.7306c.511.1047 1.0415.0552 1.5243-.1423.4827-.1976.8959-.5341 1.1869-.967s.4467-.9425.4474-1.4641c.01-.3453-.0501-.6891-.1765-1.01057-.1264-.3215-.3165-.61409-.559-.86015s-.5322-.4405-.8518-.57161c-.3196-.1311-.6625-.19617-1.0079-.19128zm12.5664 8.16001c-3.1456 0-5.3856-2.2592-5.3856-5.3824 0-3.06241 2.2816-5.34401 5.4048-5.34401 3.0208 0 5.5072 2.1568 5.3632 6.02241h-8c.1216 1.2128 1.0272 2.2592 2.7744 2.2592.9856 0 1.8496-.432 2.176-1.1296h2.9408c-.6304 2.0768-2.6656 3.5744-5.2736 3.5744zm-2.528-6.56001h4.8288c-.1093-.53984-.4046-1.02421-.8344-1.36865s-.9669-.5271-1.5176-.51615c-.5696-.03201-1.1319.1402-1.5859.48569-.454.34548-.7699.84158-.8909 1.39911z"></path><path d="m88.7712 16.296-5.792-8.83841v8.83841h-2.9792v-14.59201h2.56l5.7888 8.83841v-8.83841h2.9792v14.59201zm9.6.224c-1.0589-.0082-2.0917-.3297-2.9682-.924s-1.5574-1.4348-1.957-2.4155-.4998-2.0577-.2882-3.0953c.2116-1.03759.7256-1.98932 1.4773-2.73522.7517-.74591 1.7074-1.25259 2.7466-1.45618s2.1154-.09498 3.0933.31215c.977.40712 1.812 1.09453 2.4 1.97558.587.88105.901 1.91627.901 2.97527 0 .7073-.14 1.4076-.412 2.0606-.271.653-.67 1.2458-1.171 1.7442-.502.4985-1.097.8928-1.752 1.1603-.6549.2674-1.3561.4027-2.0634.3981zm0-2.6304c1.4784 0 2.5598-1.1488 2.5598-2.7328 0-1.58401-1.0686-2.73281-2.5598-2.73281s-2.56 1.152-2.56 2.73281c0 1.5808 1.0848 2.7328 2.5664 2.7328zm11.4468-8.08961c.566-.01452 1.127.10213 1.641.34085.513.23871.965.593 1.319 1.03515v-6.294398h2.816v15.414408h-2.816v-1.152c-.354.4427-.805.7974-1.319 1.0362-.513.2387-1.075.3551-1.641.3398-2.733 0-4.829-2.4448-4.829-5.3632 0-2.91841 2.096-5.35681 4.829-5.35681zm.582 2.56c-1.539 0-2.589 1.1904-2.589 2.79361 0 1.6032 1.05 2.7968 2.589 2.7968s2.592-1.1936 2.592-2.7968c0-1.60321-1.037-2.79361-2.592-2.79361zm12.211 8.16001c-3.145 0-5.385-2.2592-5.385-5.3824 0-3.06241 2.281-5.34401 5.404-5.34401 3.021 0 5.508 2.1568 5.364 6.02241h-8c.121 1.2128 1.027 2.2592 2.774 2.2592.986 0 1.85-.432 2.176-1.1296h2.941c-.631 2.0768-2.666 3.5744-5.274 3.5744zm-2.528-6.56001h4.829c-.109-.53984-.405-1.02421-.834-1.36865-.43-.34444-.967-.5271-1.518-.51615-.57-.03201-1.132.1402-1.586.48569-.454.34548-.77.84158-.891 1.39911z"></path><path d="m71.0078 8.35999-6.4 1.83681v2.5056l2.176-.64c-.0655.6311-.3123 1.2298-.7106 1.7237s-.931.862-1.5339 1.0597c-.6029.1978-1.2502.2168-1.8636.0547-.6135-.162-1.1669-.4982-1.5935-.9679s-.7081-1.0528-.8105-1.679-.0214-1.2686.2333-1.8498c.2547-.58111.6722-1.07609 1.2021-1.42513.5299-.34905 1.1495-.53725 1.7839-.54188h.0192c.9049-.00128 1.7827-.30835 2.4911-.87135s1.2057-1.34889 1.4112-2.2301c.2055-.8812.1071-1.806-.2791-2.62427-.3863-.81827-1.0377-1.48198-1.8487-1.883393-.8109-.401414-1.7337-.51697-2.6186-.327908-.8849.189061-1.6799.671641-2.256 1.369401-.5761.69777-.8994 1.56976-.9176 2.47443-.0181.90467.2701 1.78891.8177 2.50919-.8594.56097-1.5555 1.33898-2.0178 2.25534-.4622.91637-.6742 1.93857-.6146 2.96317.0597 1.0246.3889 2.0153.9544 2.8718.5654.8565 1.3471 1.5485 2.2659 2.0059.9188.4575 1.942.6641 2.9663.5991 1.0243-.0651 2.0133-.3995 2.8668-.9694.8535-.57 1.5414-1.3553 1.994-2.2764.4526-.9212.6539-1.9456.5834-2.9695l1.7024-.4864zm-7.5136-5.3888c.3896 0 .7632.15475 1.0386.43021.2755.27545.4302.64904.4302 1.03859s-.1547.76315-.4302 1.0386c-.2754.27546-.649.4302-1.0386.4302h-.0192c-.1928-.00126-.3836-.0405-.5613-.11548-.1777-.07497-.3389-.18422-.4744-.32151-.2737-.27725-.426-.65186-.4235-1.04141.0026-.38955.1598-.76213.437-1.03578.2773-.27366.6519-.42596 1.0414-.42342z"></path></g></svg>
